<?xml version="1.0" encoding="UTF-8"?>
<svg version="1.1" xmlns="http://www.w3.org/2000/svg" width="1024" height="1024">
<path d="M0 0 C1.58636719 3.17273437 1.14572073 6.58178689 1.125 10.0625 C1.12306641 10.82876709 1.12113281 11.59503418 1.11914062 12.38452148 C1.07891286 17.65491712 0.75944403 22.77882229 0 28 C-2.52939884 28.84313295 -4.37568219 29.20613719 -6.984375 29.4296875 C-7.75523437 29.50316406 -8.52609375 29.57664062 -9.3203125 29.65234375 C-10.9239118 29.79929738 -12.52809265 29.94005365 -14.1328125 30.07421875 C-20.63124451 30.71110827 -25.68565087 32.00124394 -30.75 36.375 C-34.36117772 41.04688669 -34.96600137 47.33402374 -36 53 C-19.31750448 53.19126428 -2.66870881 52.60142352 14 52 C15.02289752 45.33518337 15.08502515 38.8589915 15 32.125 C14.97456982 30.06515579 14.95350989 28.00525147 14.9375 25.9453125 C14.92589844 25.04312988 14.91429687 24.14094727 14.90234375 23.21142578 C15 21 15 21 16 19 C25.9 19 35.8 19 46 19 C46 30.22 46 41.44 46 53 C55.82803025 52.96040272 55.82803025 52.96040272 65.65600586 52.90991211 C67.47950562 52.90616577 67.47950562 52.90616577 69.33984375 52.90234375 C70.59144287 52.89710693 71.84304199 52.89187012 73.13256836 52.88647461 C76 53 76 53 77 54 C77.09959621 55.84159023 77.13080411 57.68696967 77.1328125 59.53125 C77.13410156 60.65144531 77.13539063 61.77164063 77.13671875 62.92578125 C77.13285156 64.10527344 77.12898437 65.28476562 77.125 66.5 C77.12886719 67.67949219 77.13273438 68.85898437 77.13671875 70.07421875 C77.13478516 71.75451172 77.13478516 71.75451172 77.1328125 73.46875 C77.13168457 74.50451172 77.13055664 75.54027344 77.12939453 76.60742188 C77 79 77 79 76 80 C73.78144736 80.08783542 71.56011504 80.10694609 69.33984375 80.09765625 C68.34314415 80.09553383 68.34314415 80.09553383 67.3263092 80.09336853 C65.19666101 80.08775518 63.06711661 80.07520054 60.9375 80.0625 C59.49674631 80.05748671 58.05599097 80.05292351 56.61523438 80.04882812 C53.07678898 80.03778145 49.53840461 80.02050792 46 80 C46.06722528 87.81076993 46.15712041 95.62104818 46.26245117 103.43139648 C46.29722663 106.08605803 46.32367187 108.74042896 46.34643555 111.39526367 C46.38013789 115.22083852 46.43246396 119.0457853 46.48828125 122.87109375 C46.49467117 124.04957382 46.5010611 125.22805389 46.50764465 126.44224548 C46.6209507 132.8561288 46.81610807 139.25961913 50 145 C55.0129351 148.25531341 59.61301708 148.36906189 65.375 148.125 C67.91977226 148.04788569 70.45329011 148.00593639 73 148 C75.33811628 150.33811628 74.18541581 156.11121687 74.1875 159.25 C74.19974609 160.20519531 74.21199219 161.16039062 74.22460938 162.14453125 C74.24493375 171.88668213 74.24493375 171.88668213 72 175 C59.74638689 178.73095086 43.39123584 176.45543187 32.1875 170.75 C24.58098061 166.11994472 19.6343422 160.54317556 17 152 C13.82412229 137.47447686 14.77834423 122.32621327 14.875 107.5625 C14.88619982 104.88476899 14.89417143 102.20704025 14.90234375 99.52929688 C14.9224921 93.01936621 14.9616686 86.50994952 15 80 C-1.83 80 -18.66 80 -36 80 C-35.96519531 86.61804688 -35.93039062 93.23609375 -35.89453125 100.0546875 C-35.87920921 104.23829003 -35.86476783 108.42185814 -35.85351562 112.60546875 C-35.83555686 119.25121207 -35.81427376 125.89683184 -35.77368164 132.54248047 C-35.74117208 137.89816774 -35.72316474 143.25372259 -35.71536827 148.60950089 C-35.70980962 150.65652681 -35.69895548 152.70354519 -35.68280983 154.75051498 C-35.66114719 157.60971702 -35.65802837 160.46836632 -35.65942383 163.32763672 C-35.648638 164.18071411 -35.63785217 165.0337915 -35.6267395 165.91271973 C-35.63923645 168.26681519 -35.63923645 168.26681519 -36 172 C-39.41509841 174.27673228 -40.64741814 174.24673629 -44.65625 174.23046875 C-45.76097656 174.22853516 -46.86570312 174.22660156 -48.00390625 174.22460938 C-49.73447266 174.20624023 -49.73447266 174.20624023 -51.5 174.1875 C-52.65371094 174.18685547 -53.80742187 174.18621094 -54.99609375 174.18554688 C-63.57855568 174.14048144 -63.57855568 174.14048144 -67 173 C-67.07029676 156.53541345 -67.12308888 140.07087609 -67.15543652 123.60617542 C-67.17085993 115.96013666 -67.19186207 108.31419153 -67.22631836 100.66821289 C-67.2563602 93.99859747 -67.27560784 87.3290499 -67.28226548 80.65936869 C-67.28615291 77.13268321 -67.29519252 73.60619174 -67.31719017 70.07956886 C-67.34163333 66.12828754 -67.34196059 62.17719046 -67.34057617 58.22583008 C-67.351362 57.07567413 -67.36214783 55.92551819 -67.3732605 54.74050903 C-67.32867826 42.90433424 -65.02894102 32.24193594 -59 22 C-58.65453125 21.37609375 -58.3090625 20.7521875 -57.953125 20.109375 C-51.62947397 9.93654508 -39.40880556 4.27490349 -28.2421875 1.25390625 C-18.9520955 -0.62222654 -9.42898928 -0.17753327 0 0 Z " fill="#212221" transform="translate(540,413)"/>
<path d="M0 0 C0.65719528 -0.0049649 1.31439056 -0.00992981 1.99150085 -0.01504517 C4.18176306 -0.02972824 6.37195234 -0.03648646 8.56225586 -0.04199219 C10.09191387 -0.04774807 11.62157187 -0.05350574 13.15122986 -0.05926514 C16.37360978 -0.0697989 19.59596464 -0.07562288 22.81835938 -0.07910156 C26.90295944 -0.0845264 30.98721591 -0.10841229 35.07170963 -0.13707352 C38.24206921 -0.15593435 41.41235089 -0.16091822 44.58276176 -0.16243744 C46.08511629 -0.16542298 47.58747086 -0.17330858 49.08976936 -0.18662262 C62.19567936 -0.29427306 76.23905025 0.33267507 88.02709961 6.66113281 C88.68387695 7.00660156 89.3406543 7.35207031 90.01733398 7.70800781 C103.34512258 15.1079921 111.51103308 27.07782602 115.68334961 41.51269531 C118.6538155 57.26398157 116.16663812 74.35469616 107.40600586 87.87988281 C102.36060111 94.68477051 96.53912533 99.784574 88.71459961 103.16113281 C88.05459961 103.16113281 87.39459961 103.16113281 86.71459961 103.16113281 C86.06397458 108.21075989 88.34079144 111.53304898 90.90209961 115.66113281 C91.34481201 116.39380371 91.78752441 117.12647461 92.24365234 117.88134766 C93.72083644 120.31624411 95.21576699 122.73950795 96.71459961 125.16113281 C97.24408203 126.0199707 97.77356445 126.87880859 98.3190918 127.76367188 C101.06473931 132.21532101 103.82028452 136.66071145 106.58178711 141.10253906 C109.38797761 145.62343352 112.16120076 150.16287745 114.90209961 154.72363281 C115.26440674 155.32449707 115.62671387 155.92536133 116 156.54443359 C121.12456958 165.10483648 121.12456958 165.10483648 120.71459961 170.16113281 C118.00180048 172.87393195 110.64020135 171.69943856 106.77905273 171.78588867 C105.329449 171.82743062 103.88026489 171.88869144 102.43237305 171.97045898 C90.56567962 172.62956873 90.56567962 172.62956873 86.40917969 169.33227539 C84.51554939 166.70545602 83.11848994 164.07827967 81.71459961 161.16113281 C80.56175927 159.13370677 79.40402493 157.10905739 78.24194336 155.08691406 C77.04101884 152.88483197 75.844561 150.68030929 74.65209961 148.47363281 C69.05304355 138.21006718 63.19349291 128.16461278 57.01904297 118.23266602 C56.46740479 117.34281006 55.9157666 116.4529541 55.34741211 115.53613281 C54.61868896 114.37210938 54.61868896 114.37210938 53.87524414 113.18457031 C52.71459961 111.16113281 52.71459961 111.16113281 51.71459961 108.16113281 C38.34959961 108.65613281 38.34959961 108.65613281 24.71459961 109.16113281 C24.6772168 113.46917969 24.63983398 117.77722656 24.60131836 122.21582031 C24.56322613 125.64565637 24.52215328 129.07542783 24.47905731 132.50520325 C24.43434877 136.12861031 24.39492375 139.75190042 24.36816406 143.37548828 C24.3421998 146.8640481 24.30184784 150.35216903 24.25141335 153.84045792 C24.22654943 155.82240158 24.21668176 157.80451482 24.20695496 159.78659058 C24.1871608 160.98768463 24.16736664 162.18877869 24.14697266 163.42626953 C24.1358696 164.48772186 24.12476654 165.54917419 24.11332703 166.64279175 C23.98174698 167.4738443 23.85016693 168.30489685 23.71459961 169.16113281 C20.3548636 171.40095682 19.23715107 171.40832557 15.31225586 171.39160156 C14.2571582 171.38966797 13.20206055 171.38773438 12.11499023 171.38574219 C11.01348633 171.37349609 9.91198242 171.36125 8.77709961 171.34863281 C7.13064453 171.34766602 7.13064453 171.34766602 5.45092773 171.34667969 C-3.02351206 171.30014524 -3.02351206 171.30014524 -7.28540039 170.16113281 C-7.30872715 148.14354235 -7.32637847 126.12595391 -7.33721256 104.10835361 C-7.34237599 93.88595225 -7.34941959 83.66355855 -7.36083984 73.44116211 C-7.37078524 64.53470493 -7.37725347 55.62825331 -7.37948889 46.72179073 C-7.38079624 42.00284478 -7.38388363 37.28391471 -7.39113045 32.56497383 C-7.3978884 28.12867142 -7.40001781 23.69239151 -7.39850807 19.25608444 C-7.3987845 17.62298269 -7.40079096 15.98988023 -7.40460587 14.35678291 C-7.40953961 12.13692071 -7.40839988 9.91714485 -7.40565491 7.69728088 C-7.4065767 6.45193856 -7.40749849 5.20659624 -7.40844822 3.92351627 C-7.18146396 -1.17220603 -4.5092768 0.02580699 0 0 Z M23.71459961 30.16113281 C23.42228422 32.42540655 23.42228422 32.42540655 23.48754883 35.06982422 C23.48769989 36.09073151 23.48785095 37.11163879 23.48800659 38.16348267 C23.49832916 39.26872284 23.50865173 40.37396301 23.51928711 41.51269531 C23.522117 42.64186371 23.5249469 43.7710321 23.52786255 44.93441772 C23.53908499 48.55176252 23.56419339 52.16886247 23.58959961 55.78613281 C23.59962674 58.23404591 23.60875305 60.68196288 23.61694336 63.12988281 C23.63903104 69.14038345 23.67252887 75.15074064 23.71459961 81.16113281 C29.54953257 81.23563595 35.38418479 81.28990145 41.21948242 81.32592773 C43.20195341 81.34095625 45.18439147 81.36138479 47.16674805 81.38745117 C50.02653154 81.42409664 52.88587305 81.44091885 55.74584961 81.45410156 C56.62325806 81.46958542 57.5006665 81.48506927 58.40466309 81.50102234 C65.59175796 81.50296047 70.86046319 80.02729893 76.96459961 76.03613281 C83.3354774 69.37566967 85.12224474 60.9108564 84.98803711 51.91894531 C84.34074064 45.39049802 82.36729326 39.19360017 77.46459961 34.66113281 C67.51828502 27.30213247 55.37360802 27.9745089 43.54907227 27.97583008 C41.32411275 27.97361741 39.09962967 27.95533689 36.87475586 27.93652344 C35.45939296 27.93359364 34.04402773 27.93160608 32.62866211 27.93066406 C31.34942871 27.92655518 30.07019531 27.92244629 28.75219727 27.91821289 C25.60382251 27.83958435 25.60382251 27.83958435 23.71459961 30.16113281 Z " fill="#212221" transform="translate(796.285400390625,415.8388671875)"/>
<path d="M0 0 C8.88382784 7.49933519 14.28303058 17.37994407 15.40625 29.03125 C15.40625 32.00125 15.40625 34.97125 15.40625 38.03125 C5.50625 38.03125 -4.39375 38.03125 -14.59375 38.03125 C-15.91375 34.07125 -17.23375 30.11125 -18.59375 26.03125 C-22.58939559 19.81580131 -27.78557038 17.30064321 -34.59375 15.03125 C-38.29751938 14.77279284 -42.00692072 14.79980915 -45.71875 14.78125 C-46.72679687 14.760625 -47.73484375 14.74 -48.7734375 14.71875 C-56.58106073 14.67829599 -63.43090433 15.33946645 -69.53125 20.53125 C-74.38484178 26.41439155 -75.15817137 31.48582746 -74.59375 39.03125 C-73.4966347 44.1178755 -71.71142576 46.83795043 -67.59375 50.03125 C-59.87928045 53.54240052 -51.68423753 55.25860504 -43.4281311 56.98095703 C-1.32863513 65.83638359 -1.32863513 65.83638359 10.40625 83.03125 C17.33840233 95.80374067 18.21535945 109.52533728 15.7578125 123.796875 C11.76055821 136.84773945 2.6652403 146.75254053 -9.11938477 153.28271484 C-27.67612356 162.94921213 -51.83904555 164.37559079 -71.85546875 158.41015625 C-87.01470644 152.81850431 -98.69822188 145.92958743 -106.59375 131.15625 C-110.4688025 122.69060773 -113.44923961 113.4416357 -112.59375 104.03125 C-111.59375 103.03125 -111.59375 103.03125 -108.72631836 102.91772461 C-107.47471924 102.92296143 -106.22312012 102.92819824 -104.93359375 102.93359375 C-103.93689415 102.93571617 -103.93689415 102.93571617 -102.9200592 102.93788147 C-100.79041101 102.94349482 -98.66086661 102.95604946 -96.53125 102.96875 C-95.09049631 102.97376329 -93.64974097 102.97832649 -92.20898438 102.98242188 C-88.67053898 102.99346855 -85.13215461 103.01074208 -81.59375 103.03125 C-81.29082031 104.10503906 -80.98789063 105.17882812 -80.67578125 106.28515625 C-77.05002875 119.69519065 -77.05002875 119.69519065 -67.09375 128.84375 C-55.19007258 134.17139292 -40.23522018 134.76498204 -27.96875 130.28125 C-22.31435594 127.66503782 -18.3724534 124.13880028 -16.1015625 118.1875 C-14.66094758 112.07042742 -14.54408215 106.09439026 -17.40625 100.46875 C-18.128125 99.664375 -18.85 98.86 -19.59375 98.03125 C-19.99859619 97.53568604 -20.40344238 97.04012207 -20.82055664 96.52954102 C-29.56587818 89.14002728 -47.01215148 87.59929707 -57.98071289 85.05444336 C-74.03285803 81.30978812 -90.71865687 77.11077936 -100.46875 62.71875 C-107.51432132 50.58925135 -108.50691189 37.11588301 -105.90234375 23.38671875 C-101.97124739 10.57364736 -93.20323277 0.02087841 -81.578125 -6.5859375 C-55.74967119 -18.55357186 -22.95621162 -17.6789216 0 0 Z " fill="#202221" transform="translate(220.59375,427.96875)"/>
<path d="M0 0 C1.20970459 0.00523682 2.41940918 0.01047363 3.66577148 0.01586914 C4.97094727 0.0190918 6.27612305 0.02231445 7.62084961 0.02563477 C9.00952213 0.03399138 10.39819401 0.04245634 11.78686523 0.05102539 C13.17944179 0.05603873 14.57202005 0.06060193 15.96459961 0.06469727 C19.38456394 0.07653105 22.80444367 0.09301659 26.22436523 0.11352539 C29.17407637 7.35114256 31.0491587 14.79021969 32.94702148 22.35961914 C33.2963055 23.73919158 33.64595721 25.11867097 33.99595642 26.49806213 C34.72565786 29.3777373 35.45241205 32.25813325 36.17675781 35.13916016 C37.09951174 38.80923423 38.02734182 42.47799918 38.95711613 46.14630032 C39.85134802 49.67529463 40.74302917 53.20493195 41.63452148 56.73461914 C41.88545909 57.72685391 41.88545909 57.72685391 42.14146614 58.73913383 C43.93652475 65.84435431 45.6813216 72.949082 47.22436523 80.11352539 C48.98061904 76.91672566 49.94499192 73.79248113 50.85668945 70.26611328 C51.16395966 69.08710953 51.47122986 67.90810577 51.78781128 66.69337463 C52.11492096 65.42050095 52.44203064 64.14762726 52.77905273 62.83618164 C53.12486268 61.5052837 53.4711538 60.17451071 53.81790161 58.84385681 C54.73085562 55.33664625 55.63895588 51.82819985 56.54553223 48.31933594 C57.98816659 42.73640136 59.43545191 37.15468766 60.8878212 31.57427788 C61.38880121 29.6449179 61.8859738 27.71457053 62.38302612 25.78419495 C68.28731914 3.05057148 68.28731914 3.05057148 70.22436523 1.11352539 C72.3699535 1.02576934 74.51840945 1.0065732 76.66577148 1.01586914 C77.97094727 1.0190918 79.27612305 1.02231445 80.62084961 1.02563477 C82.00952213 1.03399138 83.39819401 1.04245634 84.78686523 1.05102539 C86.17944179 1.05603873 87.57202005 1.06060193 88.96459961 1.06469727 C92.38456394 1.07653105 95.80444367 1.09301659 99.22436523 1.11352539 C101.24095011 5.64724545 102.92267431 10.09149532 104.31811523 14.86352539 C104.50620758 15.50319244 104.69429993 16.1428595 104.88809204 16.8019104 C105.50474133 18.90447978 106.11474503 21.00890822 106.72436523 23.11352539 C107.15632127 24.59323082 107.58845381 26.07288472 108.02075195 27.55249023 C113.21291602 45.37052093 118.22181126 63.24152104 123.22436523 81.11352539 C127.20174416 66.73793267 130.58139776 52.22082589 134.01538086 37.70800781 C142.20512243 3.13276819 142.20512243 3.13276819 144.22436523 1.11352539 C146.44291788 1.02568997 148.6642502 1.0065793 150.88452148 1.01586914 C151.88122108 1.01799156 151.88122108 1.01799156 152.89805603 1.02015686 C155.02770422 1.02577021 157.15724863 1.03832485 159.28686523 1.05102539 C160.72761893 1.05603868 162.16837426 1.06060188 163.60913086 1.06469727 C167.14757625 1.07574394 170.68596062 1.09301747 174.22436523 1.11352539 C172.9326152 8.30108015 171.11141471 15.19791595 168.97436523 22.17602539 C165.23956533 34.56007095 161.67964626 46.99013393 158.14578247 59.43283081 C153.04355574 77.39159415 147.9177405 95.33127729 142.22436523 113.11352539 C141.96059082 113.97333008 141.69681641 114.83313477 141.42504883 115.71899414 C141.16675293 116.54012695 140.90845703 117.36125977 140.64233398 118.20727539 C140.30431763 119.30072266 140.30431763 119.30072266 139.95947266 120.41625977 C139.22436523 122.11352539 139.22436523 122.11352539 137.22436523 123.11352539 C133.5006156 123.3563875 129.76764475 123.29873235 126.03686523 123.30102539 C125.00754883 123.31327148 123.97823242 123.32551758 122.91772461 123.33813477 C121.40855469 123.34103516 121.40855469 123.34103516 119.86889648 123.34399414 C118.95470947 123.34810303 118.04052246 123.35221191 117.09863281 123.35644531 C110.69776399 122.81547322 110.69776399 122.81547322 107.22436523 121.11352539 C105.32974167 117.73071365 104.4654021 114.12570003 103.50561523 110.38696289 C103.19918091 109.29251862 102.89274658 108.19807434 102.57702637 107.07046509 C101.59802645 103.55020018 100.66050788 100.02040204 99.72436523 96.48852539 C99.09562236 94.19479622 98.46413837 91.90181657 97.82983398 89.60961914 C96.57172205 85.05257538 95.32715464 80.49215003 94.09155273 75.92895508 C92.2350552 69.10848309 90.29495329 62.31406908 88.31811523 55.52758789 C88.02159058 54.50547211 87.72506592 53.48335632 87.41955566 52.43026733 C87.14567017 51.49510284 86.87178467 50.55993835 86.58959961 49.59643555 C86.3493103 48.77567535 86.109021 47.95491516 85.8614502 47.10928345 C85.26718375 45.07079822 85.26718375 45.07079822 84.22436523 43.11352539 C82.21578003 50.2036264 80.20780065 57.29389881 78.20019531 64.38427734 C77.52063936 66.78405418 76.84095685 69.18379519 76.16113281 71.58349609 C75.50065071 73.91498324 74.84054624 76.24657739 74.18081665 78.57827759 C73.51919437 80.91361508 72.85559605 83.24839365 72.19003296 85.58261108 C70.50702483 91.50025162 68.86808878 97.42470155 67.30688477 103.37573242 C66.84482384 105.1083004 66.84482384 105.1083004 66.37342834 106.87586975 C65.7893676 109.07244191 65.21798428 111.27243566 64.66111755 113.47605896 C64.39912064 114.4528511 64.13712372 115.42964325 63.8671875 116.43603516 C63.64539322 117.29431412 63.42359894 118.15259308 63.19508362 119.03688049 C62.22436523 121.11352539 62.22436523 121.11352539 60.27706909 122.38969421 C57.75129894 123.28033958 55.65601284 123.37251821 52.97827148 123.37915039 C51.97602539 123.38172852 50.9737793 123.38430664 49.94116211 123.38696289 C48.90024414 123.37922852 47.85932617 123.37149414 46.78686523 123.36352539 C45.74981445 123.37125977 44.71276367 123.37899414 43.64428711 123.38696289 C42.64075195 123.38438477 41.6372168 123.38180664 40.60327148 123.37915039 C39.69134033 123.37689453 38.77940918 123.37463867 37.83984375 123.37231445 C32.87145833 122.88071653 32.87145833 122.88071653 30.22436523 121.11352539 C28.71475852 118.08035877 27.91561006 114.88385045 27.05249023 111.61743164 C26.77251694 110.62543762 26.49254364 109.6334436 26.2040863 108.61138916 C25.27523806 105.30456918 24.37510598 101.99060145 23.47436523 98.67602539 C22.83042829 96.36447425 22.18431276 94.05352901 21.53613281 91.74316406 C20.15374558 86.81080592 18.78076572 81.87594928 17.41235352 76.93969727 C15.17632995 68.89251119 12.8612441 60.86879987 10.53295898 52.84790039 C10.14211313 51.50028184 9.75127447 50.1526612 9.36044312 48.80503845 C8.59005772 46.14961567 7.81928785 43.49430485 7.04821777 40.83908081 C6.86025131 40.19180401 6.67228485 39.54452721 6.47862244 38.87763596 C6.10113655 37.57777519 5.72362398 36.27792217 5.34608459 34.97807693 C4.09715353 30.67670028 2.85323275 26.37389611 1.61108398 22.07055664 C1.14018593 20.45180634 1.14018593 20.45180634 0.65977478 18.800354 C-1.02882681 12.94017498 -2.63528591 7.10754879 -3.77563477 1.11352539 C-2.77563477 0.11352539 -2.77563477 0.11352539 0 0 Z " fill="#202221" transform="translate(241.775634765625,464.886474609375)"/>
<path d="M0 0 C10.57931571 9.74567358 21.30536154 24.73186693 22.125 39.57128906 C22.12840447 41.50757924 22.07136134 43.44378841 22.00390625 45.37890625 C-1.99125764 46.77917981 -1.99125764 46.77917981 -10.99609375 45.37890625 C-11.36734375 44.14140625 -11.73859375 42.90390625 -12.12109375 41.62890625 C-15.88283199 30.53615255 -20.17704529 21.36651685 -30.9296875 15.8828125 C-42.38128482 10.83610357 -55.9548133 9.10008647 -67.99609375 13.37890625 C-82.47445959 19.49419776 -90.04560257 26.75149925 -96.18164062 41.23828125 C-102.97687229 59.09817071 -101.53056594 81.06893862 -94.80859375 98.69140625 C-89.17480706 111.03208186 -81.27320925 119.68428053 -68.62109375 124.81640625 C-57.75182569 128.06453163 -43.70525368 128.31622196 -33.25 123.63671875 C-22.6179622 117.70341516 -16.81295011 109.88819619 -12.99609375 98.37890625 C-12.83753906 97.6415625 -12.67898438 96.90421875 -12.515625 96.14453125 C-12.34417969 95.561875 -12.17273438 94.97921875 -11.99609375 94.37890625 C-9.03798899 92.89985387 -6.04137825 93.25699722 -2.80078125 93.28125 C-2.09333771 93.28266495 -1.38589417 93.2840799 -0.65701294 93.28553772 C1.60500294 93.29114025 3.86692023 93.30369307 6.12890625 93.31640625 C7.6614569 93.32142093 9.19400911 93.32598389 10.7265625 93.33007812 C14.48571513 93.34111048 18.24479397 93.35837673 22.00390625 93.37890625 C23.14664255 98.11346244 22.4448958 101.45125336 20.94140625 106.00390625 C20.71098633 106.7117627 20.48056641 107.41961914 20.24316406 108.14892578 C16.55928482 119.04480217 11.11164075 127.230361 3.00390625 135.37890625 C2.33875 136.07886719 1.67359375 136.77882813 0.98828125 137.5 C-13.26008001 151.44925444 -34.09999936 156.77285328 -53.47509766 156.68115234 C-65.69125819 156.38800833 -76.98128176 153.76535896 -87.99609375 148.37890625 C-88.78371094 148.01023437 -89.57132813 147.6415625 -90.3828125 147.26171875 C-96.83146012 143.9980053 -101.80855992 139.35029284 -106.99609375 134.37890625 C-107.62515625 133.81300781 -108.25421875 133.24710938 -108.90234375 132.6640625 C-116.62262356 125.4877115 -121.74677203 116.6190681 -125.80859375 107.00390625 C-126.2252832 106.03445068 -126.2252832 106.03445068 -126.65039062 105.04541016 C-131.23876593 93.59959075 -132.53360659 81.87174798 -132.43359375 69.62890625 C-132.42602051 68.31921875 -132.41844727 67.00953125 -132.41064453 65.66015625 C-132.00679011 41.79442346 -124.26768629 21.81524004 -108.44140625 3.70703125 C-106.99609375 2.37890625 -106.99609375 2.37890625 -104.99609375 2.37890625 C-104.99609375 1.71890625 -104.99609375 1.05890625 -104.99609375 0.37890625 C-103.13263903 -1.14601578 -101.29216567 -2.51729399 -99.30859375 -3.87109375 C-98.72279541 -4.27150879 -98.13699707 -4.67192383 -97.53344727 -5.08447266 C-67.88473596 -24.82914312 -27.04922203 -23.66366099 0 0 Z " fill="#212221" transform="translate(753.99609375,432.62109375)"/>
<path d="M0 0 C1.16781006 0.00523682 2.33562012 0.01047363 3.53881836 0.01586914 C4.79887695 0.0190918 6.05893555 0.02231445 7.35717773 0.02563477 C8.6976732 0.03399136 10.03816799 0.04245632 11.37866211 0.05102539 C12.72306153 0.05603879 14.06746271 0.06060197 15.41186523 0.06469727 C18.71334151 0.07653051 22.01473014 0.09301568 25.31616211 0.11352539 C26.85442341 3.54453828 27.56588414 6.22306556 27.56340027 9.97779846 C27.56759476 10.92969055 27.57178925 11.88158264 27.57611084 12.86231995 C27.57049133 13.89469284 27.56487183 14.92706573 27.55908203 15.99072266 C27.56098038 17.08718109 27.56287872 18.18363953 27.56483459 19.31332397 C27.56853759 22.93559939 27.55784502 26.55767406 27.54663086 30.17993164 C27.54543871 32.69669064 27.54498597 35.21345008 27.54524231 37.73020935 C27.54367828 43.00343145 27.53563784 48.2766019 27.52197266 53.54980469 C27.50624023 59.64317956 27.50097491 65.73649135 27.50170821 71.82988507 C27.50231891 77.69731321 27.4971016 83.56472019 27.4889164 89.43214226 C27.4857309 91.92685764 27.4837626 94.42157488 27.48302269 96.91629219 C27.48085839 100.39946793 27.47211228 103.88256399 27.46142578 107.36572266 C27.46187897 108.40011978 27.46233215 109.43451691 27.46279907 110.5002594 C27.45853409 111.44933167 27.4542691 112.39840393 27.44987488 113.37623596 C27.44819903 114.19935555 27.44652319 115.02247515 27.44479656 115.87053776 C27.31616211 118.11352539 27.31616211 118.11352539 26.31616211 122.11352539 C16.41616211 122.11352539 6.51616211 122.11352539 -3.68383789 122.11352539 C-4.63827787 91.40101037 -4.82645656 60.78252966 -4.30950928 30.05856323 C-4.26743778 27.55608165 -4.22662304 25.05357861 -4.18707275 22.55105591 C-4.1300481 19.02358575 -4.06621791 15.49630692 -4.00024414 11.96899414 C-3.98352158 10.88820587 -3.96679901 9.8074176 -3.9495697 8.69387817 C-3.92963455 7.70854095 -3.9096994 6.72320374 -3.88916016 5.70800781 C-3.87361588 4.84141037 -3.85807159 3.97481293 -3.84205627 3.08195496 C-3.59395465 -0.00473171 -3.13122065 0.13244952 0 0 Z " fill="#202221" transform="translate(426.683837890625,464.886474609375)"/>
<path d="M0 0 C4.06448097 2.36957595 6.82038083 5.08623086 8.6875 9.4375 C10.2843642 16.17210121 10.26567001 21.47388331 6.6875 27.4375 C1.65985329 33.09360255 -1.9812014 34.93800023 -9.39453125 35.45703125 C-14.71868161 35.42139437 -19.13624739 34.3800918 -23.16796875 30.78125 C-27.87440973 25.50467009 -28.66765818 21.22403008 -28.59375 14.23046875 C-28.05915851 8.92167825 -25.74213006 5.7938157 -21.875 2.125 C-15.13563159 -2.31312066 -7.53778223 -3.32633193 0 0 Z " fill="#222322" transform="translate(447.3125,414.5625)"/>
<path d="M0 0 C2.64 0.33 5.28 0.66 8 1 C8 1.33 8 1.66 8 2 C6.02 2 4.04 2 2 2 C2 40.28 2 78.56 2 118 C10.25 118 18.5 118 27 118 C27 80.05 27 42.1 27 3 C27.66 3 28.32 3 29 3 C29.33 2.34 29.66 1.68 30 1 C30.95597943 3.8679383 31.1256242 5.64782843 31.12698364 8.62376404 C31.12980347 9.5729068 31.13262329 10.52204956 31.13552856 11.49995422 C31.13350433 12.53951767 31.1314801 13.57908112 31.12939453 14.65014648 C31.13114685 15.74631287 31.13289917 16.84247925 31.13470459 17.97186279 C31.13911532 21.60495576 31.13618762 25.23800026 31.1328125 28.87109375 C31.13348581 31.39071156 31.13445606 33.91032931 31.13571167 36.4299469 C31.13718763 41.71510495 31.13513261 47.00024556 31.13037109 52.28540039 C31.12493167 58.39349915 31.12668961 64.50156452 31.1321975 70.60966247 C31.13728473 76.48669108 31.13674302 82.36370933 31.13381577 88.24073982 C31.1331478 90.74103869 31.1339704 93.2413384 31.13629532 95.74163628 C31.13883004 99.23460025 31.13496942 102.72749981 31.12939453 106.22045898 C31.13141876 107.2579982 31.13344299 108.29553741 31.13552856 109.36451721 C31.13270874 110.3164798 31.12988892 111.26844238 31.12698364 112.24925232 C31.12660662 113.07496955 31.12622959 113.90068678 31.12584114 114.75142574 C31 117 31 117 30 121 C20.1 121 10.2 121 0 121 C-1.25486926 80.62009973 -0.82961408 40.38766753 0 0 Z " fill="#1E1E1C" transform="translate(423,466)"/>
<path d="M0 0 C1.32 0.33 2.64 0.66 4 1 C6.1689357 1.11490045 8.34091207 1.17630989 10.51269531 1.20532227 C11.47917496 1.22017166 11.47917496 1.22017166 12.46517944 1.23532104 C14.58612445 1.26680429 16.70709181 1.29164103 18.828125 1.31640625 C20.30215015 1.33698718 21.77616955 1.35798395 23.25018311 1.37937927 C27.12332491 1.4344824 30.99651895 1.48394334 34.86975098 1.53222656 C38.82467274 1.58252763 42.77951898 1.63816871 46.734375 1.69335938 C54.48951932 1.80079705 62.24472658 1.90227374 70 2 C70 2.33 70 2.66 70 3 C47.89 3 25.78 3 3 3 C3 57.12 3 111.24 3 167 C11.25 167 19.5 167 28 167 C28 146.54 28 126.08 28 105 C28.33 105 28.66 105 29 105 C29.33 126.12 29.66 147.24 30 169 C27.4293441 170.28532795 25.57067786 170.12946738 22.6953125 170.1328125 C21.63699219 170.13410156 20.57867188 170.13539063 19.48828125 170.13671875 C18.37839844 170.13285156 17.26851562 170.12898437 16.125 170.125 C15.02285156 170.12886719 13.92070313 170.13273438 12.78515625 170.13671875 C11.19380859 170.13478516 11.19380859 170.13478516 9.5703125 170.1328125 C8.59852051 170.13168457 7.62672852 170.13055664 6.62548828 170.12939453 C4 170 4 170 0 169 C0 113.23 0 57.46 0 0 Z " fill="#181918" transform="translate(789,417)"/>
<path d="M0 0 C0.33 0 0.66 0 1 0 C0.67 42.9 0.34 85.8 0 130 C8.58 130 17.16 130 26 130 C26 99.64 26 69.28 26 38 C27.485 38.495 27.485 38.495 29 39 C29.06939946 50.96073154 29.12276002 62.92141546 29.15543652 74.88230705 C29.17111672 80.43577034 29.19239788 85.98909626 29.22631836 91.54248047 C29.25882792 96.89816774 29.27683526 102.25372259 29.28463173 107.60950089 C29.29019038 109.65652681 29.30104452 111.70354519 29.31719017 113.75051498 C29.33885281 116.60971702 29.34197163 119.46836632 29.34057617 122.32763672 C29.351362 123.18071411 29.36214783 124.0337915 29.3732605 124.91271973 C29.36076355 127.26681519 29.36076355 127.26681519 29 131 C25.58490159 133.27673228 24.35258186 133.24673629 20.34375 133.23046875 C19.23902344 133.22853516 18.13429688 133.22660156 16.99609375 133.22460938 C15.26552734 133.20624023 15.26552734 133.20624023 13.5 133.1875 C12.34628906 133.18685547 11.19257813 133.18621094 10.00390625 133.18554688 C1.42144432 133.14048144 1.42144432 133.14048144 -2 132 C-2 90.09 -2 48.18 -2 5 C-1.34 5 -0.68 5 0 5 C0 3.35 0 1.7 0 0 Z " fill="#1B1C1A" transform="translate(475,454)"/>
<path d="M0 0 C1.2168045 -0.00855011 1.2168045 -0.00855011 2.45819092 -0.01727295 C4.18663218 -0.02674828 5.91509172 -0.03326692 7.64355469 -0.03710938 C10.24448284 -0.04668217 12.84457466 -0.07762238 15.4453125 -0.109375 C34.48015124 -0.23284126 34.48015124 -0.23284126 43.046875 3.203125 C43.706875 4.193125 44.366875 5.183125 45.046875 6.203125 C44.1909375 6.05875 43.335 5.914375 42.453125 5.765625 C31.98086037 4.25761889 21.60881908 4.00510164 11.046875 4.015625 C9.95040649 4.01453735 9.95040649 4.01453735 8.83178711 4.01342773 C6.73671735 4.01366263 4.64190237 4.02236348 2.546875 4.03515625 C1.3196875 4.04264893 0.0925 4.0501416 -1.171875 4.05786133 C-3.8602862 3.88719866 -3.8602862 3.88719866 -4.953125 5.203125 C-5.07585349 6.79826393 -5.13093543 8.39867432 -5.15844727 9.99829102 C-5.17839249 11.01927383 -5.19833771 12.04025665 -5.21888733 13.09217834 C-5.23559982 14.2025798 -5.25231232 15.31298126 -5.26953125 16.45703125 C-5.29031235 17.58761459 -5.31109344 18.71819794 -5.33250427 19.88304138 C-5.39812297 23.51050485 -5.45694177 27.13804333 -5.515625 30.765625 C-5.55879851 33.21810686 -5.6024124 35.670581 -5.64648438 38.12304688 C-5.75464919 44.14966369 -5.85363108 50.17633373 -5.953125 56.203125 C9.226875 56.203125 24.406875 56.203125 40.046875 56.203125 C38.046875 58.203125 38.046875 58.203125 36.0667572 58.45036316 C35.25702957 58.44893814 34.44730194 58.44751312 33.61303711 58.44604492 C32.23667336 58.45065987 32.23667336 58.45065987 30.83250427 58.45536804 C29.83977005 58.44818253 28.84703583 58.44099701 27.82421875 58.43359375 C26.80840225 58.43313553 25.79258575 58.43267731 24.74598694 58.4322052 C22.59651523 58.42918096 20.44704575 58.42128956 18.29760742 58.40893555 C14.99455058 58.39068124 11.69177388 58.3884258 8.38867188 58.38867188 C6.30468506 58.38375679 4.22070015 58.37792851 2.13671875 58.37109375 C1.1419603 58.36998093 0.14720184 58.3688681 -0.87770081 58.36772156 C-1.79212448 58.36134171 -2.70654816 58.35496185 -3.64868164 58.34838867 C-4.8620797 58.34267097 -4.8620797 58.34267097 -6.09999084 58.33683777 C-7.953125 58.203125 -7.953125 58.203125 -8.953125 57.203125 C-9.05200292 55.45929965 -9.08111532 53.71146957 -9.08251953 51.96484375 C-9.08567169 50.84698486 -9.08882385 49.72912598 -9.09207153 48.57739258 C-9.0900473 47.36075928 -9.08802307 46.14412598 -9.0859375 44.890625 C-9.08689423 43.65143311 -9.08785095 42.41224121 -9.08883667 41.13549805 C-9.08951874 38.50924219 -9.08816038 35.88307867 -9.08349609 33.25683594 C-9.07779881 29.88383786 -9.08107802 26.51091935 -9.08706856 23.13792419 C-9.0915427 19.93048823 -9.08841382 16.723062 -9.0859375 13.515625 C-9.08796173 12.2989917 -9.08998596 11.0823584 -9.09207153 9.82885742 C-9.08891937 8.71099854 -9.08576721 7.59313965 -9.08251953 6.44140625 C-9.08172394 5.45180908 -9.08092834 4.46221191 -9.08010864 3.44262695 C-8.79641474 -1.56063991 -3.92978897 0.02126826 0 0 Z " fill="#181918" transform="translate(825.953125,440.796875)"/>
<path d="M0 0 C0.66 0 1.32 0 2 0 C2.04671776 14.66427109 2.08198774 29.32853232 2.10362434 43.9928627 C2.11393756 50.80174497 2.12799872 57.610581 2.15087891 64.41943359 C2.17293976 70.98759611 2.18456165 77.55572313 2.18975449 84.12392426 C2.19345621 86.63260404 2.20068452 89.14128112 2.21146011 91.64994049 C2.22593073 95.15763584 2.22797978 98.66513128 2.22705078 102.17285156 C2.23424133 103.21510391 2.24143188 104.25735626 2.24884033 105.33119202 C2.246091 106.28749008 2.24334167 107.24378815 2.24050903 108.22906494 C2.24235262 109.05867863 2.24419621 109.88829231 2.24609566 110.74304581 C1.97574168 113.22247416 1.24158743 114.85479969 0 117 C-1.18373656 111.39955792 -1.14085866 105.93130994 -1.12939453 100.23706055 C-1.13114685 99.16489792 -1.13289917 98.09273529 -1.13470459 96.98808289 C-1.1390961 93.45427825 -1.13619565 89.92052387 -1.1328125 86.38671875 C-1.13348607 83.93146251 -1.13445653 81.47620633 -1.13571167 79.02095032 C-1.13718477 73.8823686 -1.13504558 68.7438043 -1.13037109 63.60522461 C-1.12465901 57.00277423 -1.1279646 50.40036437 -1.13394356 43.79791546 C-1.13754682 38.73236279 -1.13641193 33.66681982 -1.13381577 28.60126686 C-1.13314662 26.16547453 -1.13397448 23.72968132 -1.13629532 21.29389 C-1.13881961 17.90122494 -1.13498511 14.50862684 -1.12939453 11.1159668 C-1.13243088 9.59262726 -1.13243088 9.59262726 -1.13552856 8.03851318 C-1.13270874 7.12025253 -1.12988892 6.20199188 -1.12698364 5.25590515 C-1.12660662 4.45344203 -1.12622959 3.65097891 -1.12584114 2.82419872 C-1 1 -1 1 0 0 Z " fill="#6B6B68" transform="translate(452,470)"/>
<path d="M0 0 C0.33 0 0.66 0 1 0 C1 10.56 1 21.12 1 32 C10.82803025 31.96040272 10.82803025 31.96040272 20.65600586 31.90991211 C22.47950562 31.90616577 22.47950562 31.90616577 24.33984375 31.90234375 C25.59144287 31.89710693 26.84304199 31.89187012 28.13256836 31.88647461 C31 32 31 32 32 33 C32.08737645 34.85369611 32.10698153 36.71067541 32.09765625 38.56640625 C32.09515869 39.57904541 32.09266113 40.59168457 32.09008789 41.63500977 C32.08098389 42.93108154 32.07187988 44.22715332 32.0625 45.5625 C32.041875 49.666875 32.02125 53.77125 32 58 C21.11 58 10.22 58 -1 58 C-1 57.67 -1 57.34 -1 57 C8.9 57 18.8 57 29 57 C29 49.74 29 42.48 29 35 C19.1 35 9.2 35 -1 35 C-1.0229102 30.17612933 -1.04283686 25.35244611 -1.05493164 20.52856445 C-1.05997174 18.88630536 -1.06680378 17.24405077 -1.07543945 15.60180664 C-1.08751926 13.24624521 -1.09323139 10.89074291 -1.09765625 8.53515625 C-1.10281754 7.79660904 -1.10797882 7.05806183 -1.11329651 6.2971344 C-1.1134925 4.53101912 -1.06194719 2.76502854 -1 1 C-0.67 0.67 -0.34 0.34 0 0 Z " fill="#0A0B07" transform="translate(585,434)"/>
<path d="M0 0 C18.15 0 36.3 0 55 0 C55 23.1 55 46.2 55 70 C54.67 70 54.34 70 54 70 C53.08507918 61.79852034 52.86657309 53.70462848 52.90234375 45.45703125 C52.9037587 44.20742111 52.90517365 42.95781097 52.90663147 41.67033386 C52.91124398 38.38741819 52.92018962 35.10455398 52.93133545 31.82165527 C52.94166212 28.45597974 52.94620817 25.09029638 52.95117188 21.72460938 C52.96128401 15.14969931 52.98086834 8.57491461 53 2 C35.51 2 18.02 2 0 2 C0 1.34 0 0.68 0 0 Z " fill="#4D4E4E" transform="translate(502,491)"/>
<path d="M0 0 C9.00596723 -0.023216 18.01192409 -0.04096219 27.01791477 -0.05181217 C31.20018639 -0.05702078 35.38243747 -0.06408157 39.56469727 -0.07543945 C43.60417316 -0.08634037 47.64362935 -0.09229206 51.68311882 -0.09487724 C53.22080737 -0.09671853 54.75849489 -0.10031405 56.296175 -0.10573006 C58.45732034 -0.11303621 60.61838523 -0.11398693 62.77954102 -0.11352539 C64.00753922 -0.115746 65.23553741 -0.11796661 66.50074768 -0.12025452 C70.06486396 0.0022291 73.48178354 0.4311893 77 1 C77 1.66 77 2.32 77 3 C79.31 3.33 81.62 3.66 84 4 C81.47304665 4.87471462 79.96736432 4.9944091 77.29850769 4.53720093 C73.76165868 3.9611833 70.43171511 3.86106977 66.84887695 3.84228516 C66.16031616 3.83720444 65.47175537 3.83212372 64.7623291 3.82688904 C63.27770033 3.81624606 61.79305612 3.80760245 60.30840492 3.80076981 C57.95887157 3.7889141 55.60951655 3.76944909 53.26005554 3.74765015 C46.58383069 3.68622568 39.90763096 3.63186885 33.23120117 3.59863281 C29.13926525 3.57771958 25.04766659 3.54245786 20.95592308 3.49787521 C19.39822535 3.48370371 17.84046809 3.47499017 16.28270912 3.47182083 C14.10909102 3.46692607 11.93637496 3.44381199 9.76293945 3.41650391 C8.52639114 3.40841705 7.28984283 3.4003302 6.01582336 3.39199829 C3 3 3 3 1.07731628 1.47396851 C0.72180191 0.9875589 0.36628754 0.50114929 0 0 Z " fill="#4F504E" transform="translate(790,416)"/>
<path d="M0 0 C9.9 0 19.8 0 30 0 C29.67 0.99 29.34 1.98 29 3 C28.8470353 5.51054905 28.74304822 7.99888525 28.68359375 10.51171875 C28.6524221 11.60405571 28.6524221 11.60405571 28.62062073 12.71846008 C28.55531254 15.04137875 28.49632763 17.36440906 28.4375 19.6875 C28.39429695 21.26368335 28.35068208 22.83985548 28.30664062 24.41601562 C28.1996504 28.27722975 28.09833039 32.13855603 28 36 C27.67 36 27.34 36 27 36 C27 25.11 27 14.22 27 3 C18.75 3 10.5 3 2 3 C2 14.22 2 25.44 2 37 C-16.48 37 -34.96 37 -54 37 C-54 36.67 -54 36.34 -54 36 C-35.85 36 -17.7 36 1 36 C0.67 24.12 0.34 12.24 0 0 Z " fill="#000000" transform="translate(556,432)"/>
<path d="M0 0 C10.89 0 21.78 0 33 0 C33 0.33 33 0.66 33 1 C23.1 1 13.2 1 3 1 C3.01160156 4.80273438 3.02320313 8.60546875 3.03515625 12.5234375 C3.04294796 16.19368405 3.04902408 19.86392968 3.05493164 23.53417969 C3.05997017 26.09115001 3.06680107 28.64811743 3.07543945 31.20507812 C3.08752602 34.87370517 3.09323301 38.54229423 3.09765625 42.2109375 C3.10281754 43.35992523 3.10797882 44.50891296 3.11329651 45.69271851 C3.11337204 46.7536673 3.11344757 47.81461609 3.11352539 48.90771484 C3.115746 49.84481293 3.11796661 50.78191101 3.12025452 51.74740601 C3 54 3 54 2 56 C2.3191623 58.22624593 2.3191623 58.22624593 2.9375 60.625 C3.13214844 61.44226563 3.32679688 62.25953125 3.52734375 63.1015625 C3.76130859 64.04128906 3.76130859 64.04128906 4 65 C1 63 1 63 0.31959534 60.74324036 C-0.01900765 57.83684824 -0.11990104 55.03457827 -0.11352539 52.1081543 C-0.11344986 50.94732834 -0.11337433 49.78650238 -0.11329651 48.59049988 C-0.10813522 47.34762711 -0.10297394 46.10475433 -0.09765625 44.82421875 C-0.0962413 43.54392288 -0.09482635 42.26362701 -0.09336853 40.9445343 C-0.08956397 37.5530296 -0.07975143 34.16156823 -0.06866455 30.77008057 C-0.05840598 27.30440874 -0.05380649 23.83872965 -0.04882812 20.37304688 C-0.03865883 13.58199308 -0.01908196 6.79105801 0 0 Z " fill="#131311" transform="translate(583,492)"/>
<path d="M0 0 C0.33 0 0.66 0 1 0 C0.9278125 0.67160156 0.855625 1.34320313 0.78125 2.03515625 C-1.23448149 23.73226605 -0.42585679 43.1127116 7.94921875 63.36328125 C8.83259491 65.57993146 9.49710841 67.6734356 10 70 C6.3909281 68.79697603 6.21826857 68.16482215 4.5625 64.875 C1.37157908 58.19431058 -0.32441883 51.18692902 -2 44 C-2.17724609 43.24340088 -2.35449219 42.48680176 -2.53710938 41.70727539 C-3.40751767 36.61658046 -3.22540632 31.45255317 -3.24023438 26.29980469 C-3.24990586 24.26975989 -3.28095371 22.24074384 -3.3125 20.2109375 C-3.3418916 12.7895588 -2.87403306 6.86742636 0 0 Z " fill="#1F201F" transform="translate(625,478)"/>
<path d="M0 0 C1.94140625 0.67578125 1.94140625 0.67578125 4 2 C5.44699845 6.76797851 5.68803343 12.18183347 3.875 16.875 C1.22699474 21.2883421 -1.73695109 24.15796739 -6 27 C-12.96523945 28.51865057 -19.6933825 28.58803675 -26 25 C-29.66352473 21.93806459 -31.69254341 19.20786519 -32.875 14.5625 C-32.91625 13.716875 -32.9575 12.87125 -33 12 C-31 14 -31 14 -30 17 C-28.28291554 18.636005 -28.28291554 18.636005 -26.1875 20.125 C-25.50042969 20.64320313 -24.81335938 21.16140625 -24.10546875 21.6953125 C-19.77360659 24.37962041 -14.99971692 24.54050994 -10 24 C-5.81086628 22.38879472 -2.89607366 20.4323836 0 17 C1.81596196 11.55211412 1.42868053 5.53613706 0 0 Z " fill="#2A2A2A" transform="translate(452,422)"/>
<path d="M0 0 C10.23 0 20.46 0 31 0 C31 0.33 31 0.66 31 1 C21.76 1 12.52 1 3 1 C2.67 21.79 2.34 42.58 2 64 C1.34 63.67 0.68 63.34 0 63 C0 42.21 0 21.42 0 0 Z " fill="#131413" transform="translate(818,521)"/>
<path d="M0 0 C1.2168045 -0.00855011 1.2168045 -0.00855011 2.45819092 -0.01727295 C4.18663218 -0.02674828 5.91509172 -0.03326692 7.64355469 -0.03710938 C10.24448284 -0.04668217 12.84457466 -0.07762238 15.4453125 -0.109375 C34.48015124 -0.23284126 34.48015124 -0.23284126 43.046875 3.203125 C43.706875 4.193125 44.366875 5.183125 45.046875 6.203125 C37.296875 5.453125 37.296875 5.453125 35.046875 3.203125 C33.1100137 2.8737712 33.1100137 2.8737712 30.87255859 2.88427734 C29.99978271 2.86421631 29.12700684 2.84415527 28.2277832 2.82348633 C27.30956787 2.81212646 26.39135254 2.8007666 25.4453125 2.7890625 C24.60202393 2.77141846 23.75873535 2.75377441 22.88989258 2.7355957 C19.73408214 2.67243984 16.57794946 2.62631457 13.421875 2.578125 C6.368125 2.454375 -0.685625 2.330625 -7.953125 2.203125 C-7.953125 20.353125 -7.953125 38.503125 -7.953125 57.203125 C-8.283125 57.203125 -8.613125 57.203125 -8.953125 57.203125 C-8.97625416 49.91890952 -8.99404301 42.6347019 -9.00493717 35.35045719 C-9.01016475 31.96840687 -9.01726011 28.5863816 -9.02856445 25.2043457 C-9.04146767 21.31982723 -9.04635424 17.43531903 -9.05078125 13.55078125 C-9.05594254 12.33101089 -9.06110382 11.11124054 -9.06642151 9.85450745 C-9.06649704 8.73342087 -9.06657257 7.61233429 -9.06665039 6.45727539 C-9.068871 5.46466202 -9.07109161 4.47204865 -9.07337952 3.44935608 C-8.80502289 -1.56327049 -3.93295692 0.0212854 0 0 Z " fill="#010201" transform="translate(825.953125,440.796875)"/>
<path d="M0 0 C3.9591377 1.27257998 5.38180823 3.68166134 7.24609375 7.18359375 C8.23449654 9.5649787 8.37380065 11.4581556 8 14 C7 15 7 15 4.04077148 15.11352539 C2.74727783 15.10828857 1.45378418 15.10305176 0.12109375 15.09765625 C-0.90889992 15.09553383 -0.90889992 15.09553383 -1.95970154 15.09336853 C-4.16067801 15.08775479 -6.36155409 15.07520007 -8.5625 15.0625 C-10.05143083 15.05748676 -11.54036324 15.05292355 -13.02929688 15.04882812 C-16.68623075 15.03778093 -20.34310558 15.02050713 -24 15 C-24.33 14.01 -24.66 13.02 -25 12 C-15.1 12 -5.2 12 5 12 C3.35 8.7 1.7 5.4 0 2 C0 1.34 0 0.68 0 0 Z " fill="#101110" transform="translate(909,572)"/>
<path d="M0 0 C9.9 0 19.8 0 30 0 C27.75 11.25 27.75 11.25 26 16 C25.01 16 24.02 16 23 16 C23.31049726 14.56206608 23.6234776 13.1246682 23.9375 11.6875 C24.19853516 10.48673828 24.19853516 10.48673828 24.46484375 9.26171875 C25 7 25 7 26 4 C13.13 3.505 13.13 3.505 0 3 C0 2.01 0 1.02 0 0 Z " fill="#1A1B19" transform="translate(386,466)"/>
<path d="M0 0 C0.33 0 0.66 0 1 0 C1 10.56 1 21.12 1 32 C10.9 32 20.8 32 31 32 C31 32.99 31 33.98 31 35 C20.44 34.67 9.88 34.34 -1 34 C-1.02291088 29.31854289 -1.04283732 24.63727898 -1.05493164 19.95581055 C-1.05997157 18.36205386 -1.0668035 16.76830181 -1.07543945 15.17456055 C-1.08751999 12.88849747 -1.09323155 10.60249533 -1.09765625 8.31640625 C-1.10281754 7.59973282 -1.10797882 6.88305939 -1.11329651 6.14466858 C-1.11349263 4.42936328 -1.06192007 2.71418734 -1 1 C-0.67 0.67 -0.34 0.34 0 0 Z " fill="#50504E" transform="translate(585,434)"/>
<path d="M0 0 C3 3 3 3 3.34057617 5.36010742 C3.32486572 6.26607666 3.30915527 7.1720459 3.29296875 8.10546875 C3.28330078 9.08837891 3.27363281 10.07128906 3.26367188 11.08398438 C3.23853516 12.10814453 3.21339844 13.13230469 3.1875 14.1875 C3.16719727 15.74114258 3.16719727 15.74114258 3.14648438 17.32617188 C3.11111389 19.88463699 3.06175544 22.4420578 3 25 C0.22358445 25.92547185 -1.99289564 26.27208142 -4.88671875 26.53515625 C-5.82451172 26.62216797 -6.76230469 26.70917969 -7.72851562 26.79882812 C-8.70498047 26.88583984 -9.68144531 26.97285156 -10.6875 27.0625 C-11.67556641 27.15337891 -12.66363281 27.24425781 -13.68164062 27.33789062 C-16.12082148 27.56177679 -18.56025587 27.78235239 -21 28 C-21.33 27.01 -21.66 26.02 -22 25 C-14.55927655 22.54233582 -7.85088138 22.86104635 0 23 C0 15.41 0 7.82 0 0 Z " fill="#1C1C1B" transform="translate(537,416)"/>
<path d="M0 0 C9.9 0 19.8 0 30 0 C30.33 2.31 30.66 4.62 31 7 C30.01 7.33 29.02 7.66 28 8 C28 6.35 28 4.7 28 3 C19.42 3 10.84 3 2 3 C2 5.97 2 8.94 2 12 C1.67 12 1.34 12 1 12 C1 9.69 1 7.38 1 5 C0.34 5 -0.32 5 -1 5 C-0.67 3.35 -0.34 1.7 0 0 Z " fill="#1E1E1D" transform="translate(109,531)"/>
<path d="M0 0 C0.66 0.66 1.32 1.32 2 2 C1.8125 5.5 1.8125 5.5 1 9 C-2.29623327 11.19748885 -3.28713556 11.24775096 -7.11328125 11.23046875 C-8.11423828 11.22853516 -9.11519531 11.22660156 -10.14648438 11.22460938 C-11.19126953 11.21236328 -12.23605469 11.20011719 -13.3125 11.1875 C-14.34568359 11.18685547 -15.37886719 11.18621094 -16.44335938 11.18554688 C-21.39711645 11.15694918 -26.13426732 11.04684438 -31 10 C-31 8.02 -31 6.04 -31 4 C-30.01 5.485 -30.01 5.485 -29 7 C-26.19189856 7.51104922 -26.19189856 7.51104922 -22.8984375 7.51171875 C-21.08085937 7.56489258 -21.08085937 7.56489258 -19.2265625 7.61914062 C-17.95554687 7.64169922 -16.68453125 7.66425781 -15.375 7.6875 C-13.456875 7.73874023 -13.456875 7.73874023 -11.5 7.79101562 C-8.33342068 7.87372479 -5.16712636 7.94280085 -2 8 C-1.7834375 6.576875 -1.7834375 6.576875 -1.5625 5.125 C-1 2 -1 2 0 0 Z " fill="#474746" transform="translate(381,577)"/>
<path d="M0 0 C-2.1681336 2.1681336 -4.3225955 4.28419127 -6.625 6.3125 C-10.72964624 10.95723127 -11.29138687 15.85394688 -11.13671875 21.93359375 C-10.91294039 25.31584386 -10.47934594 28.64457839 -10 32 C-13 31 -13 31 -14.16015625 28.79296875 C-16.23469422 21.89392387 -15.88345816 15.01854327 -12.8125 8.5 C-9.69234925 3.03314433 -6.73809671 -0.7700682 0 0 Z " fill="#070706" transform="translate(157,443)"/>
<path d="M0 0 C1.20970459 0.00523682 2.41940918 0.01047363 3.66577148 0.01586914 C4.97094727 0.0190918 6.27612305 0.02231445 7.62084961 0.02563477 C9.00952213 0.03399138 10.39819401 0.04245634 11.78686523 0.05102539 C13.17944179 0.05603873 14.57202005 0.06060193 15.96459961 0.06469727 C19.38456394 0.07653105 22.80444367 0.09301659 26.22436523 0.11352539 C26.55436523 0.77352539 26.88436523 1.43352539 27.22436523 2.11352539 C25.22436523 4.11352539 25.22436523 4.11352539 22.51879883 4.2487793 C21.39812012 4.19641113 20.27744141 4.14404297 19.12280273 4.09008789 C17.30522461 4.01274414 17.30522461 4.01274414 15.45092773 3.93383789 C13.5444043 3.8371582 13.5444043 3.8371582 11.59936523 3.73852539 C10.32061523 3.68180664 9.04186523 3.62508789 7.72436523 3.56665039 C4.55715837 3.42483516 1.3907041 3.27339043 -1.77563477 3.11352539 C-2.43563477 5.75352539 -3.09563477 8.39352539 -3.77563477 11.11352539 C-5.01388935 7.39876162 -4.48150733 4.92523726 -3.77563477 1.11352539 C-2.77563477 0.11352539 -2.77563477 0.11352539 0 0 Z " fill="#090A09" transform="translate(314.775634765625,465.886474609375)"/>
<path d="M0 0 C0.88365234 0.00451172 1.76730469 0.00902344 2.67773438 0.01367188 C4.84768559 0.02540134 7.01760172 0.04333505 9.1875 0.0625 C10.84247356 3.37244713 10.28834335 7.05373 10.25 10.6875 C10.24548828 11.48929687 10.24097656 12.29109375 10.23632812 13.1171875 C10.22453168 15.09899006 10.20659605 17.08075433 10.1875 19.0625 C9.1975 19.3925 8.2075 19.7225 7.1875 20.0625 C7.1875 14.4525 7.1875 8.8425 7.1875 3.0625 C5.76695312 3.08570313 4.34640625 3.10890625 2.8828125 3.1328125 C1.02604691 3.15156771 -0.83072435 3.16976817 -2.6875 3.1875 C-4.09322266 3.21263672 -4.09322266 3.21263672 -5.52734375 3.23828125 C-6.87119141 3.24794922 -6.87119141 3.24794922 -8.2421875 3.2578125 C-9.06960449 3.26828613 -9.89702148 3.27875977 -10.74951172 3.28955078 C-12.8125 3.0625 -12.8125 3.0625 -14.8125 1.0625 C-9.89747242 -0.22985715 -5.03959898 -0.04885517 0 0 Z " fill="#101211" transform="translate(530.8125,412.9375)"/>
<path d="M0 0 C0.84087158 -0.01740234 1.68174316 -0.03480469 2.5480957 -0.05273438 C3.74438599 -0.05176758 3.74438599 -0.05176758 4.96484375 -0.05078125 C5.68148193 -0.05376221 6.39812012 -0.05674316 7.13647461 -0.05981445 C9.58395123 0.41330024 10.48395015 1.43775905 12.0625 3.3125 C11.38783691 3.33231934 10.71317383 3.35213867 10.01806641 3.37255859 C6.90754139 3.4688811 3.79759211 3.5781181 0.6875 3.6875 C-0.90384766 3.73390625 -0.90384766 3.73390625 -2.52734375 3.78125 C-8.47492165 4.00017925 -14.02146826 4.55192041 -19.80322266 5.99462891 C-22.14951416 6.34407658 -23.69757666 6.0362653 -25.9375 5.3125 C-23.9575 4.9825 -21.9775 4.6525 -19.9375 4.3125 C-19.9375 3.6525 -19.9375 2.9925 -19.9375 2.3125 C-13.25132168 0.55874831 -6.8801522 0.0675735 0 0 Z " fill="#141715" transform="translate(173.9375,413.6875)"/>
<path d="M0 0 C0.33 0 0.66 0 1 0 C1 11.55 1 23.1 1 35 C-10.22 34.67 -21.44 34.34 -33 34 C-33 33.67 -33 33.34 -33 33 C-17.655 32.505 -17.655 32.505 -2 32 C-1.38969181 27.11753445 -0.87679242 23.01223169 -0.9375 18.22265625 C-0.94910156 16.71155273 -0.94910156 16.71155273 -0.9609375 15.16992188 C-0.97382812 14.14447266 -0.98671875 13.11902344 -1 12.0625 C-1.02537127 9.99093602 -1.04645101 7.91931342 -1.0625 5.84765625 C-1.07410156 4.94023682 -1.08570313 4.03281738 -1.09765625 3.09790039 C-1 1 -1 1 0 0 Z " fill="#A9A9A9" transform="translate(556,433)"/>
<path d="M0 0 C9.9 0 19.8 0 30 0 C29.67 0.99 29.34 1.98 29 3 C28.8470353 5.51054905 28.74304822 7.99888525 28.68359375 10.51171875 C28.66281265 11.23994339 28.64203156 11.96816803 28.62062073 12.71846008 C28.55531254 15.04137875 28.49632763 17.36440906 28.4375 19.6875 C28.39429695 21.26368335 28.35068208 22.83985548 28.30664062 24.41601562 C28.1996504 28.27722975 28.09833039 32.13855603 28 36 C27.67 36 27.34 36 27 36 C27 25.11 27 14.22 27 3 C19.23637798 3.11854942 19.23637798 3.11854942 11.47338867 3.27026367 C10.5063501 3.27775635 9.53931152 3.28524902 8.54296875 3.29296875 C7.0583313 3.31653442 7.0583313 3.31653442 5.54370117 3.34057617 C3 3 3 3 0 0 Z " fill="#0E0F0C" transform="translate(556,432)"/>
<path d="M0 0 C0.33 0 0.66 0 1 0 C1.00808685 0.76040085 1.01617371 1.5208017 1.02450562 2.304245 C1.10295973 9.52596274 1.19039601 16.74749299 1.28752708 23.96898174 C1.33713797 27.68021208 1.38346595 31.39141869 1.421875 35.1027832 C1.4591791 38.69503446 1.50565004 42.28706799 1.55806351 45.87912941 C1.58518426 47.89327897 1.60319293 49.90754475 1.62094116 51.92179871 C1.74996413 60.10566749 2.52861681 67.94763015 4 76 C3.34 75.67 2.68 75.34 2 75 C2 74.01 2 73.02 2 72 C1.34 72 0.68 72 0 72 C0 48.24 0 24.48 0 0 Z " fill="#010101" transform="translate(557,492)"/>
<path d="M0 0 C9.84885162 5.6949142 16.30695692 13.16436809 20 24 C20.75 27.5625 20.75 27.5625 21 30 C20.34 30.33 19.68 30.66 19 31 C18.89042969 30.38511719 18.78085938 29.77023437 18.66796875 29.13671875 C18.50941406 28.32847656 18.35085937 27.52023437 18.1875 26.6875 C18.03667969 25.88699219 17.88585937 25.08648438 17.73046875 24.26171875 C16.90416213 21.70326134 15.95056462 20.79568108 14 19 C13.17566711 17.72893187 12.38485967 16.43563045 11.625 15.125 C8.86509877 10.61106515 6.17110152 6.72370051 1 5 C0.67 3.35 0.34 1.7 0 0 Z " fill="#222321" transform="translate(216,498)"/>
<path d="M0 0 C0.33 0 0.66 0 1 0 C1 1.65 1 3.3 1 5 C-7.58 5 -16.16 5 -25 5 C-24.67 4.01 -24.34 3.02 -24 2 C-16.08 2 -8.16 2 0 2 C0 1.34 0 0.68 0 0 Z " fill="#050605" transform="translate(234,461)"/>
<path d="M0 0 C0.66 0 1.32 0 2 0 C4.25696728 4.51393456 4.08092895 8.06333406 4 13 C-19.99516389 14.40027356 -19.99516389 14.40027356 -29 13 C-29 12.67 -29 12.34 -29 12 C-19.43 11.67 -9.86 11.34 0 11 C0 7.37 0 3.74 0 0 Z " fill="#2E2F2F" transform="translate(772,465)"/>
<path d="M0 0 C9.57 0 19.14 0 29 0 C29.66 1.65 30.32 3.3 31 5 C30.34 5 29.68 5 29 5 C29 4.01 29 3.02 29 2 C15.635 2.495 15.635 2.495 2 3 C1.67 3.66 1.34 4.32 1 5 C1 4.34 1 3.68 1 3 C0.34 3 -0.32 3 -1 3 C-0.67 2.01 -0.34 1.02 0 0 Z " fill="#6E6E6E" transform="translate(239,465)"/>
<path d="M0 0 C0.66 0.33 1.32 0.66 2 1 C2 2.65 2 4.3 2 6 C11.57 6 21.14 6 31 6 C30.67 6.66 30.34 7.32 30 8 C20.1 8 10.2 8 0 8 C-1 2 -1 2 0 0 Z " fill="#0E0E0F" transform="translate(742,469)"/>
<path d="M0 0 C0.97001953 0.05671875 1.94003906 0.1134375 2.93945312 0.171875 C5.31466354 0.31228153 7.68864124 0.46357378 10.0625 0.625 C9.7325 1.285 9.4025 1.945 9.0625 2.625 C8.15628906 2.60179687 7.25007812 2.57859375 6.31640625 2.5546875 C-6.07854477 2.3710586 -14.63736826 4.61546613 -25.9375 9.625 C-25.9375 8.965 -25.9375 8.305 -25.9375 7.625 C-23.96428947 6.2523318 -21.96206848 4.92072383 -19.9375 3.625 C-19.2775 2.965 -18.6175 2.305 -17.9375 1.625 C-11.86977835 -0.7440706 -6.42619062 -0.43924748 0 0 Z " fill="#333333" transform="translate(699.9375,441.375)"/>
<path d="M0 0 C12.21 0 24.42 0 37 0 C37.495 0.99 37.495 0.99 38 2 C31.271439 3.0133375 24.67368392 3.18332903 17.875 3.1875 C16.28751953 3.20586914 16.28751953 3.20586914 14.66796875 3.22460938 C9.39008543 3.23454266 4.92547976 3.1559626 0 1 C0 0.67 0 0.34 0 0 Z " fill="#505050" transform="translate(155,586)"/>
<path d="M0 0 C3.00024947 -0.05444001 5.99949039 -0.0938836 9 -0.125 C9.83917969 -0.14175781 10.67835938 -0.15851563 11.54296875 -0.17578125 C20.14231906 -0.24244288 26.6800716 1.42504475 34 6 C30.53117035 7.15627655 29.77905734 6.79427689 26.4375 5.625 C21.30243546 3.96877152 16.36925687 3.33129457 11 3 C11 2.34 11 1.68 11 1 C7.37 1 3.74 1 0 1 C0 0.67 0 0.34 0 0 Z " fill="#111211" transform="translate(165,439)"/>
<path d="M0 0 C8.10154205 1.86129745 8.10154205 1.86129745 10.48046875 5.4296875 C1.07044597 4.46613397 1.07044597 4.46613397 -3.51953125 3.4296875 C-3.51953125 3.0996875 -3.51953125 2.7696875 -3.51953125 2.4296875 C-9.12953125 2.0996875 -14.73953125 1.7696875 -20.51953125 1.4296875 C-14.72479441 -2.43347039 -6.6559465 -1.07854405 0 0 Z " fill="#0C0D0C" transform="translate(712.51953125,440.5703125)"/>
<path d="M0 0 C1.13402814 3.40208443 0.72262823 4.56999068 0 8 C-0.30780731 15.07051505 -0.09657446 22.00933783 1 29 C0.34 29.33 -0.32 29.66 -1 30 C-3.24662022 24.57588903 -3.33350178 19.64628975 -3.3125 13.875 C-3.32861328 12.98167969 -3.34472656 12.08835937 -3.36132812 11.16796875 C-3.36621394 4.63075408 -3.36621394 4.63075408 -1.48046875 1.3828125 C-0.99191406 0.92648437 -0.50335938 0.47015625 0 0 Z " fill="#191A19" transform="translate(117,451)"/>
<path d="M0 0 C1.81242052 -0.02687279 3.62495233 -0.04633715 5.4375 -0.0625 C6.44683594 -0.07410156 7.45617187 -0.08570313 8.49609375 -0.09765625 C11 0 11 0 12 1 C13.48638992 1.15655027 14.97949127 1.25066943 16.47265625 1.31640625 C17.82133789 1.37924805 17.82133789 1.37924805 19.19726562 1.44335938 C20.61555664 1.50233398 20.61555664 1.50233398 22.0625 1.5625 C23.01189453 1.60568359 23.96128906 1.64886719 24.93945312 1.69335938 C27.29281353 1.79979276 29.64628354 1.90181008 32 2 C29.47633651 4.52366349 27.8833145 4.25816568 24.43725586 4.27734375 C23.32362671 4.26380859 23.32362671 4.26380859 22.1875 4.25 C21.43154541 4.24613281 20.67559082 4.24226562 19.89672852 4.23828125 C13.13294626 4.13572416 6.64418987 3.29417264 0 2 C0 1.34 0 0.68 0 0 Z " fill="#38393A" transform="translate(681,585)"/>
<path d="M0 0 C9.33854735 0.60707016 18.67082393 1.26058807 28 2 C27.67 2.66 27.34 3.32 27 4 C23.81257885 4.05865035 20.62529882 4.09381259 17.4375 4.125 C16.09461914 4.15013672 16.09461914 4.15013672 14.72460938 4.17578125 C9.39910095 4.21479596 5.03629311 3.75475782 0 2 C0 1.34 0 0.68 0 0 Z " fill="#161717" transform="translate(157,560)"/>
<path d="M0 0 C9.24 0 18.48 0 28 0 C28.33 0.66 28.66 1.32 29 2 C28.67 2.66 28.34 3.32 28 4 C24.64521419 3.88909054 21.29144824 3.75871222 17.9375 3.625 C16.99455078 3.5940625 16.05160156 3.563125 15.08007812 3.53125 C9.72433421 3.30731646 5.07901759 2.73292417 0 1 C0 0.67 0 0.34 0 0 Z " fill="#3A3939" transform="translate(424,465)"/>
<path d="M0 0 C0.66 0.33 1.32 0.66 2 1 C1.274931 7.42203972 -0.62541848 12.83100405 -3.5 18.5625 C-3.80881104 19.18205566 -4.11762207 19.80161133 -4.43579102 20.43994141 C-6.72964957 24.86482479 -6.72964957 24.86482479 -9 26 C-8.15096798 22.13544046 -6.78420251 18.46191952 -5.4375 14.75 C-5.20353516 14.1003125 -4.96957031 13.450625 -4.72851562 12.78125 C-4.15407213 11.18687622 -3.5772707 9.59335233 -3 8 C-2.34 8 -1.68 8 -1 8 C-0.67 5.36 -0.34 2.72 0 0 Z " fill="#434443" transform="translate(910,480)"/>
<path d="M0 0 C2 3 2 3 2 6 C2.66 6 3.32 6 4 6 C7.0506754 15.36307921 7.0506754 15.36307921 7.5625 20.1875 C7.89060715 24.0356518 7.89060715 24.0356518 9.125 27.75 C9.99450339 30.979584 9.93865858 31.95927503 9 35 C7.71136403 30.66037367 6.42983151 26.31873629 5.15478516 21.97509766 C4.72020081 20.49828867 4.28369399 19.02204398 3.84521484 17.54638672 C3.2146368 15.42301167 2.59104114 13.2976913 1.96875 11.171875 C1.77188599 10.51443298 1.57502197 9.85699097 1.37219238 9.17962646 C0.42746597 5.92715286 0 3.43146809 0 0 Z " fill="#373737" transform="translate(255,523)"/>
<path d="M0 0 C2.95183101 2.95183101 3.08663988 5.95511947 4 10 C4.33 10 4.66 10 5 10 C5.05404449 12.75026417 5.09369306 15.49946203 5.125 18.25 C5.15013672 19.41595703 5.15013672 19.41595703 5.17578125 20.60546875 C5.23655121 27.71555417 5.23655121 27.71555417 3 31 C2.01 32.485 2.01 32.485 1 34 C1.0721875 33.40574219 1.144375 32.81148437 1.21875 32.19921875 C2.46075597 21.10741541 1.9581866 10.99731582 0 0 Z " fill="#060605" transform="translate(232,518)"/>
<path d="M0 0 C-7.37484982 3.72731977 -13.67404102 6.7177641 -22 7 C-22.33 6.01 -22.66 5.02 -23 4 C-20.0643233 3.26608082 -17.1285071 2.53289432 -14.19140625 1.8046875 C-12.29886012 1.32749717 -10.40931663 0.83763206 -8.52734375 0.3203125 C-3.3102518 -1.10341727 -3.3102518 -1.10341727 0 0 Z " fill="#323232" transform="translate(214,580)"/>
<path d="M0 0 C8.01642178 1.96629213 8.01642178 1.96629213 10 5 C10 6.32 10 7.64 10 9 C10.99 9.33 11.98 9.66 13 10 C12.85946128 12.62538284 12.71281053 15.25017427 12.5625 17.875 C12.50352539 18.99455078 12.50352539 18.99455078 12.44335938 20.13671875 C12.11328125 25.7734375 12.11328125 25.7734375 11 28 C10.34 27.67 9.68 27.34 9 27 C9.33 26.01 9.66 25.02 10 24 C10.49707055 18.35295264 10.79216901 13.55702184 8.1875 8.4375 C7.465625 7.633125 6.74375 6.82875 6 6 C5.484375 5.401875 4.96875 4.80375 4.4375 4.1875 C2.88847939 2.76260464 2.88847939 2.76260464 0 2 C0 1.34 0 0.68 0 0 Z " fill="#393A3A" transform="translate(195,520)"/>
<path d="M0 0 C0.33 0.66 0.66 1.32 1 2 C-1.90600261 3.25664978 -3.79604584 4 -7 4 C-7.33 4.99 -7.66 5.98 -8 7 C-11.54924701 9.63658349 -14.63890395 10.49289581 -19 11 C-15.06833808 5.01703621 -9.3222205 1.75769941 -2.4375 0.1875 C-1.633125 0.125625 -0.82875 0.06375 0 0 Z " fill="#212622" transform="translate(507,417)"/>
<path d="M0 0 C3.69167742 3.69167742 3.18305232 7.90670559 3.1875 12.8125 C3.19974609 13.51181641 3.21199219 14.21113281 3.22460938 14.93164062 C3.23699659 19.34561655 2.62789183 22.90131584 1 27 C-0.0394775 23.8815675 -0.11494838 21.72524414 -0.09765625 18.45703125 C-0.09443359 17.38388672 -0.09121094 16.31074219 -0.08789062 15.20507812 C-0.07951172 14.08552734 -0.07113281 12.96597656 -0.0625 11.8125 C-0.05798828 10.68134766 -0.05347656 9.55019531 -0.04882812 8.38476562 C-0.03703498 5.58979073 -0.0205765 2.7949218 0 0 Z " fill="#151615" transform="translate(880,457)"/>
<path d="M0 0 C0.99 0.33 1.98 0.66 3 1 C1.35 7.27 -0.3 13.54 -2 20 C-2.66 20 -3.32 20 -4 20 C-4.97812873 16.94371936 -5.00835683 15.14722553 -4.00390625 12.109375 C-3.77509766 11.40039062 -3.54628906 10.69140625 -3.31054688 9.9609375 C-3.06369141 9.23132813 -2.81683594 8.50171875 -2.5625 7.75 C-2.19801758 6.63238281 -2.19801758 6.63238281 -1.82617188 5.4921875 C-1.22667019 3.65841765 -0.61455513 1.82877996 0 0 Z " fill="#2B2B2B" transform="translate(308,559)"/>
<path d="M0 0 C1.093125 0.495 2.18625 0.99 3.3125 1.5 C8.50656323 3.48623962 13.515183 3.27222437 19 3 C19 3.66 19 4.32 19 5 C16.62672281 7.37327719 16.05025894 7.2957818 12.8125 7.3125 C8.1706488 7.20001572 5.01669209 6.34307039 1 4 C0.3125 1.890625 0.3125 1.890625 0 0 Z " fill="#121413" transform="translate(589,558)"/>
<path d="M0 0 C9.24 0 18.48 0 28 0 C28 0.33 28 0.66 28 1 C15.625 1.495 15.625 1.495 3 2 C3 4.97 3 7.94 3 11 C2.67 11 2.34 11 2 11 C2 8.69 2 6.38 2 4 C1.34 4 0.68 4 0 4 C0 2.68 0 1.36 0 0 Z " fill="#060707" transform="translate(108,532)"/>
<path d="M0 0 C0.66 0.33 1.32 0.66 2 1 C2 1.66 2 2.32 2 3 C0.5437455 3.67119549 -0.91507867 4.33681807 -2.375 5 C-3.59316406 5.556875 -3.59316406 5.556875 -4.8359375 6.125 C-7 7 -7 7 -9 7 C-9 7.99 -9 8.98 -9 10 C-10.32 9.34 -11.64 8.68 -13 8 C-13 7.67 -13 7.34 -13 7 C-15.97 6.505 -15.97 6.505 -19 6 C-19 5.67 -19 5.34 -19 5 C-18.13117188 4.89042969 -17.26234375 4.78085937 -16.3671875 4.66796875 C-10.28799388 3.83156963 -5.33280914 3.02672951 0 0 Z " fill="#212321" transform="translate(197,556)"/>
<path d="M0 0 C2 3 2 3 1.86328125 5.09375 C1.68152344 5.8878125 1.49976563 6.681875 1.3125 7.5 C1.11527344 8.37398437 0.91804688 9.24796875 0.71484375 10.1484375 C-0.44805197 14.78731116 -1.68849751 19.40099792 -3 24 C-3.33 24 -3.66 24 -4 24 C-4.62867565 15.28585694 -2.91691481 8.19080097 0 0 Z " fill="#2C2B2B" transform="translate(396,524)"/>
<path d="M0 0 C0.85722656 0.13277344 1.71445312 0.26554688 2.59765625 0.40234375 C8.39456209 1.29769448 14.19059708 2.18938564 20 3 C20 3.99 20 4.98 20 6 C12.513226 5.7201206 6.63729312 4.52350129 0 1 C0 0.67 0 0.34 0 0 Z " fill="#151615" transform="translate(679,557)"/>
<path d="M0 0 C0.99 0.99 1.98 1.98 3 3 C2.34 4.32 1.68 5.64 1 7 C0.67 6.67 0.34 6.34 0 6 C-0.17015625 6.96421875 -0.3403125 7.9284375 -0.515625 8.921875 C-0.75796875 10.18515625 -1.0003125 11.4484375 -1.25 12.75 C-1.48203125 14.00296875 -1.7140625 15.2559375 -1.953125 16.546875 C-3.05026825 20.1658102 -4.11426987 21.63894808 -7 24 C-2.96127563 7.1070615 -2.96127563 7.1070615 0 0 Z " fill="#2E3030" transform="translate(630,459)"/>
<path d="M0 0 C0.33 0 0.66 0 1 0 C1.06058594 1.00160156 1.12117187 2.00320313 1.18359375 3.03515625 C1.26808405 4.37761331 1.35272768 5.72006072 1.4375 7.0625 C1.51871094 8.37347656 1.59992187 9.68445313 1.68359375 11.03515625 C1.97898249 14.73663238 2.43265388 18.33370448 3 22 C3.66 22 4.32 22 5 22 C5.66 26.29 6.32 30.58 7 35 C4.66722169 32.66722169 4.04850996 30.84224065 2.9375 27.75 C2.59589844 26.81671875 2.25429688 25.8834375 1.90234375 24.921875 C0.10827112 19.11249698 -0.1332432 13.64361415 -0.0625 7.625 C-0.05798828 6.88894531 -0.05347656 6.15289062 -0.04882812 5.39453125 C-0.03715142 3.59631842 -0.01922011 1.79814803 0 0 Z " fill="#050504" transform="translate(651,500)"/>
<path d="M0 0 C0.99 0.33 1.98 0.66 3 1 C0.82730861 5.00232625 -1.75046452 7.83170291 -5 11 C-6.02813611 12.31175986 -7.04084432 13.6369893 -8 15 C-8.70703125 13.2890625 -8.70703125 13.2890625 -9 11 C-7.63671875 8.7109375 -7.63671875 8.7109375 -5.6875 6.375 C-5.05199219 5.59898437 -4.41648437 4.82296875 -3.76171875 4.0234375 C-2.5561043 2.63871846 -1.29825903 1.29825903 0 0 Z " fill="#181919" transform="translate(128,430)"/>
<path d="M0 0 C13.10679612 1.10679612 13.10679612 1.10679612 17 5 C17.99 5.33 18.98 5.66 20 6 C19.67 6.66 19.34 7.32 19 8 C16.58003379 7.23849322 14.16440984 6.4662699 11.75 5.6875 C11.06808594 5.47416016 10.38617188 5.26082031 9.68359375 5.04101562 C5.96199871 3.83059394 2.95376839 2.59596655 0 0 Z " fill="#2A2B2A" transform="translate(135,503)"/>
<path d="M0 0 C3.74879638 1.24959879 5.20967538 3.20967538 8 6 C9.81991615 7.28396626 11.66101854 8.50659643 13.546875 9.69140625 C15.36943383 11.33268907 15.61732553 12.61835495 16 15 C7.9321886 12.38982572 3.97876865 7.09488391 0 0 Z " fill="#353635" transform="translate(119,488)"/>
<path d="M0 0 C0.66 0 1.32 0 2 0 C3.59105604 8.27086157 4.2386744 15.64731722 3 24 C2.67 24 2.34 24 2 24 C1.67 19.38 1.34 14.76 1 10 C0.67 10 0.34 10 0 10 C0 6.7 0 3.4 0 0 Z " fill="#414241" transform="translate(909,454)"/>
<path d="M0 0 C-2.1681336 2.1681336 -4.3225955 4.28419127 -6.625 6.3125 C-9.51894434 9.58722649 -10.0908472 11.784837 -11 16 C-12.125 14.3125 -12.125 14.3125 -13 12 C-12.25 9.5 -12.25 9.5 -11 7 C-10.71125 6.29875 -10.4225 5.5975 -10.125 4.875 C-7.57208157 0.62013595 -4.84012091 -0.40334341 0 0 Z " fill="#3F403F" transform="translate(157,443)"/>
<path d="M0 0 C0 3 0 3 -1.0625 5.5 C-2.39093767 10.45950063 -1.66374482 14.95912719 -1 20 C-3 19 -3 19 -4.125 16.9375 C-5.46186715 12.44944599 -5.73173772 8.13892565 -4.1875 3.625 C-3 2 -3 2 0 0 Z " fill="#151515" transform="translate(424,420)"/>
<path d="M0 0 C1.32 0.33 2.64 0.66 4 1 C5.5056904 6.80766296 6.21824777 11.9981863 6 18 C3.71635001 14.57452501 2.86599293 11.24343863 1.875 7.3125 C1.69324219 6.61060547 1.51148438 5.90871094 1.32421875 5.18554688 C0.87772921 3.45833732 0.4381834 1.72933544 0 0 Z " fill="#2B2A29" transform="translate(267,568)"/>
<path d="M0 0 C0.97451359 3.16533736 1.02313245 5.71380766 0.6875 9 C0.60886719 9.845625 0.53023438 10.69125 0.44921875 11.5625 C-0.32398383 15.75796442 -1.98549135 18.08183609 -5 21 C-4.35610937 18.0620618 -3.70997221 15.124649 -3.0625 12.1875 C-2.78889648 10.93743164 -2.78889648 10.93743164 -2.50976562 9.66210938 C-2.33251953 8.85966797 -2.15527344 8.05722656 -1.97265625 7.23046875 C-1.81031494 6.49207764 -1.64797363 5.75368652 -1.48071289 4.99291992 C-1 3 -1 3 0 0 Z " fill="#2C2D2B" transform="translate(374,512)"/>
<path d="M0 0 C4.62 1.65 9.24 3.3 14 5 C13.34 5.66 12.68 6.32 12 7 C12.99 7.66 13.98 8.32 15 9 C11.53771692 8.5532538 8.46635792 7.49558815 5.25 6.1875 C4.47140625 5.87167969 3.6928125 5.55585938 2.890625 5.23046875 C1 4 1 4 0 0 Z " fill="#2D2D2D" transform="translate(152,478)"/>
<path d="M0 0 C1.8125 0.125 1.8125 0.125 4 1 C5.06775224 2.96466413 6.06553465 4.96855359 7 7 C7.515625 7.495 8.03125 7.99 8.5625 8.5 C10.65315066 10.68154851 11.1739371 13.14055149 12 16 C11.01 16.33 10.02 16.66 9 17 C8.51789062 16.02417969 8.03578125 15.04835938 7.5390625 14.04296875 C6.90114842 12.75775951 6.26312169 11.47260618 5.625 10.1875 C5.30789063 9.54490234 4.99078125 8.90230469 4.6640625 8.24023438 C3.23541389 5.36805539 1.78214527 2.6732179 0 0 Z " fill="#383838" transform="translate(732,454)"/>
<path d="M0 0 C2 2 2 2 2.1953125 5.9140625 C2.18200376 7.48449351 2.15813602 9.05486221 2.125 10.625 C2.11597656 11.42679687 2.10695313 12.22859375 2.09765625 13.0546875 C2.07406223 15.03658523 2.03819065 17.01832981 2 19 C1.01 19.33 0.02 19.66 -1 20 C-1.02696009 17.2291017 -1.04681952 14.4584655 -1.0625 11.6875 C-1.07087891 10.90181641 -1.07925781 10.11613281 -1.08789062 9.30664062 C-1.09111328 8.54931641 -1.09433594 7.79199219 -1.09765625 7.01171875 C-1.10289307 6.31522217 -1.10812988 5.61872559 -1.11352539 4.90112305 C-1 3 -1 3 0 0 Z " fill="#838381" transform="translate(539,413)"/>
<path d="M0 0 C0.33 0 0.66 0 1 0 C1 3.96 1 7.92 1 12 C-2.73884332 9.34345343 -4.64978174 7.41889613 -6 3 C-4.68 3 -3.36 3 -2 3 C-1.34 2.01 -0.68 1.02 0 0 Z " fill="#171817" transform="translate(877,560)"/>
<path d="M0 0 C-2.52952288 3.15111212 -4.76756266 3.58798017 -8.6875 4.1875 C-9.68136719 4.34605469 -10.67523437 4.50460937 -11.69921875 4.66796875 C-12.45847656 4.77753906 -13.21773437 4.88710938 -14 5 C-14.33 4.34 -14.66 3.68 -15 3 C-11.07677056 -0.92322944 -5.25785342 -0.10515707 0 0 Z " fill="#424241" transform="translate(731,583)"/>
<path d="M0 0 C0.99 0.33 1.98 0.66 3 1 C-0.13922331 5.52048157 -3.21495828 7.51545911 -8 10 C-8 6 -8 6 -6.35546875 4.26171875 C-5.64003906 3.74222656 -4.92460938 3.22273437 -4.1875 2.6875 C-3.47980469 2.15511719 -2.77210938 1.62273438 -2.04296875 1.07421875 C-1.36878906 0.71972656 -0.69460938 0.36523438 0 0 Z " fill="#2F302F" transform="translate(753,567)"/>
<path d="M0 0 C12.66970387 2.89066059 12.66970387 2.89066059 18 6 C14.2195649 7.26014503 11.87795389 6.81641135 8 6 C5.8125 4.5 5.8125 4.5 4 3 C1.85266073 2.29485154 1.85266073 2.29485154 0 2 C0 1.34 0 0.68 0 0 Z " fill="#111110" transform="translate(182,514)"/>
<path d="M0 0 C2 2 2 2 3 5 C4.63502936 6.58558381 4.63502936 6.58558381 6.5625 8.0625 C8.50390625 9.59765625 8.50390625 9.59765625 10 11 C10 11.66 10 12.32 10 13 C10.99 13.33 11.98 13.66 13 14 C12.01 14.495 12.01 14.495 11 15 C6.83907077 12.44670252 3.65778668 10.13433484 1 6 C0.25 2.6875 0.25 2.6875 0 0 Z " fill="#474746" transform="translate(419,434)"/>
<path d="M0 0 C-1.15356445 1.49536133 -1.15356445 1.49536133 -3 3 C-5.54370117 3.2487793 -5.54370117 3.2487793 -8.54296875 3.07421875 C-9.61611328 3.01943359 -10.68925781 2.96464844 -11.79492188 2.90820312 C-12.91447266 2.83537109 -14.03402344 2.76253906 -15.1875 2.6875 C-16.88422852 2.5956543 -16.88422852 2.5956543 -18.61523438 2.50195312 C-21.41125303 2.34858501 -24.20563763 2.18072046 -27 2 C-27 1.67 -27 1.34 -27 1 C-17.98978127 0.41464936 -9.0343984 -0.14340315 0 0 Z " fill="#000000" transform="translate(720,585)"/>
<path d="M0 0 C2.64059394 0.44009899 4.79573867 0.89495132 7.1875 2.125 C8.0846875 2.558125 8.0846875 2.558125 9 3 C9.66 2.67 10.32 2.34 11 2 C11.625 3.875 11.625 3.875 12 6 C11.34 6.66 10.68 7.32 10 8 C8.51714758 7.04737966 7.03881799 6.08771595 5.5625 5.125 C4.73878906 4.59132813 3.91507813 4.05765625 3.06640625 3.5078125 C1 2 1 2 0 0 Z " fill="#282828" transform="translate(652,571)"/>
<path d="M0 0 C0.66 0 1.32 0 2 0 C2.33 1.65 2.66 3.3 3 5 C3.33 5 3.66 5 4 5 C4.66 9.62 5.32 14.24 6 19 C5.34 19 4.68 19 4 19 C3.32900016 16.39688008 2.66304662 13.79264602 2 11.1875 C1.80921875 10.44951172 1.6184375 9.71152344 1.421875 8.95117188 C0.64737086 5.89464659 0 3.16626522 0 0 Z " fill="#383939" transform="translate(108,536)"/>
<path d="M0 0 C0.65226563 0.13277344 1.30453125 0.26554688 1.9765625 0.40234375 C6.6408287 1.34482822 11.29868454 2.25768703 16 3 C14.77734375 4.53515625 14.77734375 4.53515625 13 6 C8.55247388 5.99180934 4.83370298 4.69136345 1.4375 1.875 C0.963125 1.25625 0.48875 0.6375 0 0 Z " fill="#161716" transform="translate(142,581)"/>
<path d="M0 0 C0.66 0 1.32 0 2 0 C2.33 0.99 2.66 1.98 3 3 C4.31200404 4.35432675 5.64631404 5.68733482 7 7 C9 10 9 10 8.625 12.1875 C8.41875 12.785625 8.2125 13.38375 8 14 C3.87231375 9.53763648 1.89311646 5.7789871 0 0 Z " fill="#3B3B3A" transform="translate(557,564)"/>
<path d="M0 0 C4.29 0 8.58 0 13 0 C12.01 1.485 12.01 1.485 11 3 C8.3984375 3.29296875 8.3984375 3.29296875 5.375 3.1875 C3.87066406 3.14689453 3.87066406 3.14689453 2.3359375 3.10546875 C1.56507813 3.07066406 0.79421875 3.03585937 0 3 C0 2.01 0 1.02 0 0 Z " fill="#2F3130" transform="translate(699,560)"/>
<path d="M0 0 C2.12508244 3.18762365 2.5020163 5.26512223 3 9 C3.33 8.34 3.66 7.68 4 7 C4.66 7 5.32 7 6 7 C6.33 6.01 6.66 5.02 7 4 C7 5.98 7 7.96 7 10 C3.535 11.485 3.535 11.485 0 13 C0 8.71 0 4.42 0 0 Z " fill="#0B0B0A" transform="translate(361,541)"/>
<path d="M0 0 C5.82923987 2.65895152 10.32891147 5.6208545 15 10 C13.19140625 10.640625 13.19140625 10.640625 11 11 C7.68455394 8.56416208 4.90063513 5.90063513 2 3 C1.34 2.67 0.68 2.34 0 2 C0 1.34 0 0.68 0 0 Z " fill="#424140" transform="translate(209,421)"/>
<path d="M0 0 C0.99 0 1.98 0 3 0 C2.125 7.625 2.125 7.625 1 11 C0.34 11 -0.32 11 -1 11 C-1 11.66 -1 12.32 -1 13 C-1.66 12.67 -2.32 12.34 -3 12 C-2.01 8.04 -1.02 4.08 0 0 Z " fill="#0B0B0A" transform="translate(773,530)"/>
<path d="M0 0 C5.05462789 0.84801704 7.89211722 4.11514652 11 8 C11.9375 10.9375 11.9375 10.9375 12 13 C10.85872377 11.85872377 9.71776264 10.71713121 8.578125 9.57421875 C7.42694314 8.42588635 6.26987213 7.28344889 5.109375 6.14453125 C4.47515625 5.51933594 3.8409375 4.89414062 3.1875 4.25 C2.58292969 3.65703125 1.97835937 3.0640625 1.35546875 2.453125 C0 1 0 1 0 0 Z " fill="#060605" transform="translate(750,432)"/>
<path d="M0 0 C1.89692143 0.45380895 3.79249595 0.91324992 5.6875 1.375 C6.74324219 1.63023437 7.79898438 1.88546875 8.88671875 2.1484375 C11.70406766 2.91905489 14.31668325 3.85498543 17 5 C13.25438602 6.24853799 10.86657968 5.66665167 7 5 C5.6078125 4.8453125 5.6078125 4.8453125 4.1875 4.6875 C2 4 2 4 0.86328125 1.95703125 C0.57839844 1.31121094 0.29351562 0.66539062 0 0 Z " fill="#2E302F" transform="translate(191,415)"/>
<path d="M0 0 C0.33 0.99 0.66 1.98 1 3 C1.66 3 2.32 3 3 3 C3.55978184 4.57701982 4.09719401 6.16199242 4.625 7.75 C4.92664063 8.63171875 5.22828125 9.5134375 5.5390625 10.421875 C6.07333427 13.41017471 5.62433191 14.49923002 4 17 C3.32635339 14.91891315 2.66133202 12.8350329 2 10.75 C1.62875 9.58984375 1.2575 8.4296875 0.875 7.234375 C0 4 0 4 0 0 Z " fill="#2B2C2A" transform="translate(331,520)"/>
<path d="M0 0 C1.44319692 0.90767102 2.87934106 1.82656106 4.3125 2.75 C5.11300781 3.26046875 5.91351563 3.7709375 6.73828125 4.296875 C9.00368861 6.00277761 10.42684167 7.65808145 12 10 C7.9747211 8.78305522 4.35138383 7.58535324 1 5 C0.36328125 2.39453125 0.36328125 2.39453125 0 0 Z " fill="#40403F" transform="translate(216,498)"/>
<path d="M0 0 C0.33 0 0.66 0 1 0 C1.22201613 2.9162118 1.42808498 5.83207744 1.625 8.75 C1.68945312 9.575 1.75390625 10.4 1.8203125 11.25 C1.871875 12.04921875 1.9234375 12.8484375 1.9765625 13.671875 C2.02893066 14.4050293 2.08129883 15.13818359 2.13525391 15.89355469 C1.89915035 19.57063324 0.01230504 21.98154244 -2 25 C-1.34 16.75 -0.68 8.5 0 0 Z " fill="#020402" transform="translate(910,463)"/>
<path d="M0 0 C0.70125 0.721875 1.4025 1.44375 2.125 2.1875 C4.92770745 4.99823813 7.92262792 7.49516226 11 10 C9.19921875 10.6640625 9.19921875 10.6640625 7 11 C3.54638425 8.84856724 1.29954586 5.98422213 0.125 2.125 C0.08375 1.42375 0.0425 0.7225 0 0 Z " fill="#070707" transform="translate(119,563)"/>
<path d="M0 0 C0.66 0.99 1.32 1.98 2 3 C1.5390625 5.04296875 1.5390625 5.04296875 0.625 7.1875 C0.32851563 7.90292969 0.03203125 8.61835937 -0.2734375 9.35546875 C-0.51320313 9.89816406 -0.75296875 10.44085937 -1 11 C-1.99 10.67 -2.98 10.34 -4 10 C-3.34 7.36 -2.68 4.72 -2 2 C-1.34 2 -0.68 2 0 2 C0 1.34 0 0.68 0 0 Z " fill="#151614" transform="translate(763,551)"/>
<path d="M0 0 C2.97 0 5.94 0 9 0 C9 0.66 9 1.32 9 2 C11.31 2.33 13.62 2.66 16 3 C15.34 3.66 14.68 4.32 14 5 C11.25 4.609375 11.25 4.609375 8 3.75 C6.39125 3.34007812 6.39125 3.34007812 4.75 2.921875 C2 2 2 2 0 0 Z " fill="#3A3B3B" transform="translate(173,514)"/>
<path d="M0 0 C0.66 0.33 1.32 0.66 2 1 C-0.31 3.64 -2.62 6.28 -5 9 C-5.66 7.68 -6.32 6.36 -7 5 C-4.69 3.35 -2.38 1.7 0 0 Z " fill="#4B4B4B" transform="translate(227,565)"/>
<path d="M0 0 C0.66 0.33 1.32 0.66 2 1 C0.9318153 6.11365014 -0.23107476 11.07227969 -2 16 C-2.66 16 -3.32 16 -4 16 C-3.67 13.36 -3.34 10.72 -3 8 C-2.34 8 -1.68 8 -1 8 C-0.67 5.36 -0.34 2.72 0 0 Z " fill="#484948" transform="translate(235,544)"/>
<path d="M0 0 C5.94 0 11.88 0 18 0 C18 0.99 18 1.98 18 3 C18.66 3 19.32 3 20 3 C19.67 4.65 19.34 6.3 19 8 C17 5 17 5 17 1 C11.39 1 5.78 1 0 1 C0 0.67 0 0.34 0 0 Z " fill="#010101" transform="translate(250,467)"/>
<path d="M0 0 C0.66 0.33 1.32 0.66 2 1 C1.01 3.97 0.02 6.94 -1 10 C-1.99 9.34 -2.98 8.68 -4 8 C-3.67 6.35 -3.34 4.7 -3 3 C-2.01 2.67 -1.02 2.34 0 2 C0 1.34 0 0.68 0 0 Z " fill="#272928" transform="translate(321,517)"/>
<path d="M0 0 C-5.75 3 -5.75 3 -8 3 C-8.33 3.99 -8.66 4.98 -9 6 C-9.66 5.67 -10.32 5.34 -11 5 C-11 4.34 -11 3.68 -11 3 C-11.66 2.67 -12.32 2.34 -13 2 C-3.60674157 -1.20224719 -3.60674157 -1.20224719 0 0 Z " fill="#464545" transform="translate(891,516)"/>
<path d="M0 0 C6.75 0.875 6.75 0.875 9 2 C9 2.66 9 3.32 9 4 C10.65 4.33 12.3 4.66 14 5 C13.34 5.66 12.68 6.32 12 7 C8.04 5.02 4.08 3.04 0 1 C0 0.67 0 0.34 0 0 Z " fill="#424243" transform="translate(133,578)"/>
<path d="M0 0 C3.80635497 3.20760251 7.54563567 6.40746109 11 10 C6.36108575 9.72712269 4.2649533 7.70642674 1.13671875 4.5703125 C0 3 0 3 0 0 Z " fill="#070706" transform="translate(644,561)"/>
<path d="M0 0 C2.65927684 2.65927684 3.1810914 5.59408266 4.125 9.125 C4.39763672 10.11306641 4.39763672 10.11306641 4.67578125 11.12109375 C5.12315437 12.74576456 5.56236535 14.37267893 6 16 C5.34 16 4.68 16 4 16 C3.54625 14.7625 3.0925 13.525 2.625 12.25 C1.776763 9.95572087 0.93997352 7.89195234 -0.25 5.75 C-1.21999976 3.48666723 -0.81177087 2.27295845 0 0 Z " fill="#343331" transform="translate(360,534)"/>
<path d="M0 0 C0.33 0.66 0.66 1.32 1 2 C0.36328125 3.875 0.36328125 3.875 -0.6875 6 C-1.18830078 7.051875 -1.18830078 7.051875 -1.69921875 8.125 C-3.21910635 10.31582897 -4.55687434 11.01246289 -7 12 C-7 8.19654123 -5.86213669 7.22298985 -3.5 4.3125 C-2.8503125 3.50425781 -2.200625 2.69601562 -1.53125 1.86328125 C-1.0259375 1.24839844 -0.520625 0.63351562 0 0 Z " fill="#090907" transform="translate(903,498)"/>
<path d="M0 0 C0.66 0.33 1.32 0.66 2 1 C0.515 6.445 0.515 6.445 -1 12 C-1.33 12 -1.66 12 -2 12 C-3.35111663 4.19354839 -3.35111663 4.19354839 -2 1 C-1.34 0.67 -0.68 0.34 0 0 Z " fill="#373735" transform="translate(410,481)"/>
<path d="M0 0 C0.66 0.33 1.32 0.66 2 1 C1.88557539 2.60495567 1.75805306 4.20898119 1.625 5.8125 C1.55539062 6.70582031 1.48578125 7.59914063 1.4140625 8.51953125 C1 11 1 11 -1 14 C-1.66 13.67 -2.32 13.34 -3 13 C-2.01 8.71 -1.02 4.42 0 0 Z " fill="#333534" transform="translate(476,445)"/>
<path d="M0 0 C0 0.66 0 1.32 0 2 C0.66 2.33 1.32 2.66 2 3 C-2.29 3 -6.58 3 -11 3 C-6.577168 -0.317124 -5.28089024 -0.30466674 0 0 Z " fill="#040403" transform="translate(442,413)"/>
<path d="M0 0 C2.23404926 2.23404926 2.92100286 3.9496423 4.0625 6.875 C4.40410156 7.73867188 4.74570312 8.60234375 5.09765625 9.4921875 C5.87535983 11.65359745 6.49511162 13.76183502 7 16 C6.01 15.67 5.02 15.34 4 15 C2.83203125 12.3828125 2.83203125 12.3828125 1.8125 9.125 C1.46832031 8.05507813 1.12414062 6.98515625 0.76953125 5.8828125 C0 3 0 3 0 0 Z " fill="#040403" transform="translate(628,532)"/>
<path d="M0 0 C2 2 2 2 2.5 5.0625 C2.665 6.031875 2.83 7.00125 3 8 C3.66 8.33 4.32 8.66 5 9 C4.67 9.66 4.34 10.32 4 11 C3.01 11 2.02 11 1 11 C-0.28317892 7.15046324 -0.06643637 4.05261865 0 0 Z " fill="#191A19" transform="translate(205,455)"/>
<path d="M0 0 C1.65 0 3.3 0 5 0 C4.67 3.63 4.34 7.26 4 11 C3.67 11 3.34 11 3 11 C3 8.36 3 5.72 3 3 C1.02 3 -0.96 3 -3 3 C-2.01 2.67 -1.02 2.34 0 2 C0 1.34 0 0.68 0 0 Z " fill="#040503" transform="translate(608,561)"/>
<path d="M0 0 C2.57146057 2.57146057 2.80117997 4.6050417 3.625 8.125 C3.88539063 9.22070312 4.14578125 10.31640625 4.4140625 11.4453125 C4.70410156 12.70988281 4.70410156 12.70988281 5 14 C4.34 14 3.68 14 3 14 C-0.66641647 9.62850344 -0.31749488 5.39741292 0 0 Z " fill="#444543" transform="translate(281,519)"/>
<path d="M0 0 C0.99 0.99 1.98 1.98 3 3 C1.46126823 6.71860179 0.52488612 7.35633541 -3 10 C-2.01 6.7 -1.02 3.4 0 0 Z " fill="#333434" transform="translate(118,443)"/>
<path d="M0 0 C-6.34719711 3.05153707 -6.34719711 3.05153707 -9.375 2.8125 C-11 2 -11 2 -12 0 C-3.42857143 -1.28571429 -3.42857143 -1.28571429 0 0 Z " fill="#4A4B4A" transform="translate(699,415)"/>
<path d="M0 0 C2.84550012 0.66010476 5.52325999 1.51724966 8.25 2.5625 C8.95640625 2.83191406 9.6628125 3.10132813 10.390625 3.37890625 C10.92171875 3.58386719 11.4528125 3.78882813 12 4 C12 4.33 12 4.66 12 5 C7.04230204 5.29162929 3.97193147 5.12940055 0 2 C0 1.34 0 0.68 0 0 Z " fill="#090908" transform="translate(663,577)"/>
<path d="M0 0 C-0.99 0.495 -0.99 0.495 -2 1 C-2.65213292 3.02463255 -2.65213292 3.02463255 -3 5 C-4.32 4.34 -5.64 3.68 -7 3 C-7 2.67 -7 2.34 -7 2 C-9.97 1.505 -9.97 1.505 -13 1 C-13 0.67 -13 0.34 -13 0 C-11.58456585 -0.19658808 -10.16755969 -0.38187546 -8.75 -0.5625 C-7.96109375 -0.66691406 -7.1721875 -0.77132812 -6.359375 -0.87890625 C-3.99467126 -1.00027349 -2.2488963 -0.69633257 0 0 Z " fill="#363736" transform="translate(191,561)"/>
<path d="M0 0 C3.21496708 1.07165569 4.08462512 1.88376774 6.25 4.375 C6.79140625 4.98085938 7.3328125 5.58671875 7.890625 6.2109375 C8.25671875 6.80132813 8.6228125 7.39171875 9 8 C8.67 8.99 8.34 9.98 8 11 C6.66375099 9.35653302 5.33107149 7.71016314 4 6.0625 C3.2575 5.14597656 2.515 4.22945312 1.75 3.28515625 C0 1 0 1 0 0 Z " fill="#333233" transform="translate(635,552)"/>
<path d="M0 0 C1.32 0.33 2.64 0.66 4 1 C4.38218767 2.65614657 4.71395102 4.32457024 5 6 C4.67 6.33 4.34 6.66 4 7 C4.28730055 9.33944736 4.61936779 11.6739143 5 14 C2.99006295 10.98509443 2.27376659 8.7850073 1.375 5.3125 C1.11460937 4.31863281 0.85421875 3.32476563 0.5859375 2.30078125 C0.39257812 1.54152344 0.19921875 0.78226563 0 0 Z " fill="#474746" transform="translate(339,551)"/>
<path d="M0 0 C0.99 1.485 0.99 1.485 2 3 C2.556875 3.763125 3.11375 4.52625 3.6875 5.3125 C5.32290018 8.66117657 4.90693226 10.45471933 4 14 C1.01520806 9.52281208 0 5.36175907 0 0 Z " fill="#343534" transform="translate(250,506)"/>
<path d="M0 0 C0.33 0.99 0.66 1.98 1 3 C-1.42130331 5.42130331 -2.80111377 5.52840504 -6.125 6.125 C-7.03507813 6.29257812 -7.94515625 6.46015625 -8.8828125 6.6328125 C-9.58148437 6.75398437 -10.28015625 6.87515625 -11 7 C-7.48637572 4.28704674 -3.87190796 2.15933329 0 0 Z " fill="#111111" transform="translate(744,574)"/>
<path d="M0 0 C0.33 0 0.66 0 1 0 C0.5547115 5.27315333 -0.08373163 10.01770224 -2 15 C-3.63800475 10.4499868 -2.83757562 5.92149702 -0.9375 1.5625 C-0.628125 1.046875 -0.31875 0.53125 0 0 Z " fill="#060605" transform="translate(371,529)"/>
<path d="M0 0 C0.99 0.33 1.98 0.66 3 1 C0.03 4.96 0.03 4.96 -3 9 C-3.33 7.68 -3.66 6.36 -4 5 C-2.0625 2.25 -2.0625 2.25 0 0 Z " fill="#464646" transform="translate(510,444)"/>
<path d="M0 0 C3.91402949 1.26941497 5.79072873 2.51167694 8 6 C7.67 6.66 7.34 7.32 7 8 C3.64379729 6.61122646 1.92701272 5.08322035 0 2 C0 1.34 0 0.68 0 0 Z " fill="#303231" transform="translate(221,431)"/>
<path d="M0 0 C0.66 0 1.32 0 2 0 C1.01 2.97 0.02 5.94 -1 9 C-1.99 8.67 -2.98 8.34 -4 8 C-3.6875 6.0625 -3.6875 6.0625 -3 4 C-2.01 3.67 -1.02 3.34 0 3 C0 2.01 0 1.02 0 0 Z " fill="#3C3D3D" transform="translate(384,570)"/>
<path d="M0 0 C2.02350324 3.03525486 2.32124018 4.19426202 2.625 7.6875 C2.69976562 8.49574219 2.77453125 9.30398438 2.8515625 10.13671875 C2.90054688 10.75160156 2.94953125 11.36648438 3 12 C2.01 12.495 2.01 12.495 1 13 C-0.00496852 9.98509443 -0.10335303 7.95818308 -0.0625 4.8125 C-0.05347656 3.91144531 -0.04445312 3.01039063 -0.03515625 2.08203125 C-0.02355469 1.39496094 -0.01195312 0.70789063 0 0 Z " fill="#606260" transform="translate(143,458)"/>
<path d="M0 0 C2.64 0.33 5.28 0.66 8 1 C8 1.66 8 2.32 8 3 C9.32 3.33 10.64 3.66 12 4 C8.96663814 4.22893297 6.02534949 4.36475845 3 4 C0.9375 2 0.9375 2 0 0 Z " fill="#262727" transform="translate(183,414)"/>
<path d="M0 0 C0.33 0.66 0.66 1.32 1 2 C-2.3 2 -5.6 2 -9 2 C-9 1.34 -9 0.68 -9 0 C-5.49270578 -1.16909807 -3.55692677 -0.85056945 0 0 Z " fill="#010201" transform="translate(185,415)"/>
<path d="M0 0 C0.99 0.33 1.98 0.66 3 1 C2.95875 1.763125 2.9175 2.52625 2.875 3.3125 C2.77919176 6.22718416 2.77919176 6.22718416 5 9 C4.625 11.6875 4.625 11.6875 4 14 C2.30566082 10.9530371 1.50532888 8.17178534 0.875 4.75 C0.70742188 3.85796875 0.53984375 2.9659375 0.3671875 2.046875 C0.18542969 1.03367187 0.18542969 1.03367187 0 0 Z " fill="#323232" transform="translate(346,572)"/>
<path d="M0 0 C0.66 0.33 1.32 0.66 2 1 C0.02 3.97 -1.96 6.94 -4 10 C-5 7 -5 7 -3.6875 3.875 C-2 1 -2 1 0 0 Z " fill="#515150" transform="translate(767,552)"/>
<path d="M0 0 C1.35015859 4.05047576 0.62084998 6.7920168 0 11 C-0.66 11 -1.32 11 -2 11 C-2.33 11.66 -2.66 12.32 -3 13 C-2.52060632 8.28596212 -2.03165952 4.33420699 0 0 Z " fill="#040403" transform="translate(392,539)"/>
<path d="M0 0 C0.99 0 1.98 0 3 0 C2.71890887 1.64767247 2.42481474 3.29313145 2.125 4.9375 C1.96257812 5.85402344 1.80015625 6.77054688 1.6328125 7.71484375 C1.42398437 8.46894531 1.21515625 9.22304688 1 10 C0.01 10.495 0.01 10.495 -1 11 C-1.14285714 3.57142857 -1.14285714 3.57142857 0 0 Z " fill="#10100F" transform="translate(291,541)"/>
<path d="M0 0 C1.15957207 3.47871621 0.77456651 4.34219645 -0.4375 7.6875 C-0.72496094 8.49574219 -1.01242187 9.30398438 -1.30859375 10.13671875 C-1.65083984 11.05904297 -1.65083984 11.05904297 -2 12 C-3.37058195 7.88825414 -2.75640862 5.26339405 -2 1 C-1.34 0.67 -0.68 0.34 0 0 Z " fill="#030403" transform="translate(305,495)"/>
<path d="M0 0 C2 3 2 3 2 7 C2.66 7 3.32 7 4 7 C4 8.65 4 10.3 4 12 C3.34 12 2.68 12 2 12 C0.40861915 7.82262526 -0.21278058 4.46839215 0 0 Z " fill="#050504" transform="translate(347,491)"/>
<path d="M0 0 C0 3 0 3 -1.3125 4.38671875 C-2.875 5.59114583 -4.4375 6.79557292 -6 8 C-6.66 7.67 -7.32 7.34 -8 7 C-5.42215154 4.35247996 -3.08351902 2.05567935 0 0 Z " fill="#131212" transform="translate(877,488)"/>
<path d="M0 0 C1.09898702 3.29696105 0.87124444 4.40494903 0.0625 7.6875 C-0.22947266 8.89986328 -0.22947266 8.89986328 -0.52734375 10.13671875 C-0.68332031 10.75160156 -0.83929688 11.36648438 -1 12 C-1.66 11.34 -2.32 10.68 -3 10 C-2.69903201 5.86169011 -2.32101984 3.48152976 0 0 Z " fill="#131313" transform="translate(309,479)"/>
<path d="M0 0 C0.66 0 1.32 0 2 0 C2 1.65 2 3.3 2 5 C2.66 5 3.32 5 4 5 C4 7.64 4 10.28 4 13 C0.25474201 9.25474201 0.31090051 5.01729091 0 0 Z " fill="#131312" transform="translate(232,453)"/>
<path d="M0 0 C1.44010481 0.25662245 2.8770687 0.53090821 4.3125 0.8125 C5.11300781 0.96332031 5.91351562 1.11414063 6.73828125 1.26953125 C9.23445587 2.07572236 10.32422106 3.02052002 12 5 C11.01 5.495 11.01 5.495 10 6 C8.64791086 5.37224433 7.31836295 4.69580267 6 4 C4.00779443 3.31039038 2.00894394 2.63920943 0 2 C0 1.34 0 0.68 0 0 Z " fill="#2C2D2D" transform="translate(867,417)"/>
<path d="M0 0 C0.66 0.33 1.32 0.66 2 1 C2.59355614 3.64860427 2.74209269 6.29197322 3 9 C1.68 9.33 0.36 9.66 -1 10 C-0.835 8.906875 -0.67 7.81375 -0.5 6.6875 C0.06718184 3.12474127 0.06718184 3.12474127 0 0 Z " fill="#454545" transform="translate(914,577)"/>
<path d="M0 0 C2.97 0.33 5.94 0.66 9 1 C9 1.66 9 2.32 9 3 C9.66 3 10.32 3 11 3 C11 3.66 11 4.32 11 5 C3.375 3.375 3.375 3.375 0 0 Z " fill="#3C3C3B" transform="translate(574,583)"/>
<path d="M0 0 C4.455 1.98 4.455 1.98 9 4 C3.9375 5.6875 3.9375 5.6875 2 6 C1.34 5.34 0.68 4.68 0 4 C0 2.68 0 1.36 0 0 Z " fill="#424242" transform="translate(676,553)"/>
<path d="M0 0 C0.66 1.32 1.32 2.64 2 4 C2.66 4 3.32 4 4 4 C4 6.97 4 9.94 4 13 C1.47519307 10.47519307 1.44261367 8.86176966 0.875 5.375 C0.70742188 4.37210938 0.53984375 3.36921875 0.3671875 2.3359375 C0.24601562 1.56507813 0.12484375 0.79421875 0 0 Z " fill="#040403" transform="translate(282,529)"/>
<path d="M0 0 C0.99 0.33 1.98 0.66 3 1 C4.1875 4.5625 4.1875 4.5625 5 8 C3.68 7.67 2.36 7.34 1 7 C0.67 4.69 0.34 2.38 0 0 Z " fill="#121211" transform="translate(351,507)"/>
<path d="M0 0 C0.33 0 0.66 0 1 0 C1.10815225 1.76949095 1.18566083 3.54087487 1.25 5.3125 C1.29640625 6.29863281 1.3428125 7.28476562 1.390625 8.30078125 C1 11 1 11 -3 14 C-2.01 9.38 -1.02 4.76 0 0 Z " fill="#3D3F3F" transform="translate(302,499)"/>
<path d="M0 0 C1.98 0 3.96 0 6 0 C6 0.66 6 1.32 6 2 C7.98 2.66 9.96 3.32 12 4 C8.35839192 5.21386936 7.66834531 4.6674695 4.3125 3.0625 C3.10013672 2.49208984 3.10013672 2.49208984 1.86328125 1.91015625 C1.24839844 1.60980469 0.63351563 1.30945313 0 1 C0 0.67 0 0.34 0 0 Z " fill="#494A4A" transform="translate(135,503)"/>
<path d="M0 0 C0.66 0.33 1.32 0.66 2 1 C-1.07999946 4.67230705 -3.2482602 5.56802365 -8 6 C-5.63404067 3.38499232 -3.13950774 1.61000397 0 0 Z " fill="#2F302F" transform="translate(142,420)"/>
<path d="M0 0 C2.52588702 2.36292656 3.88820837 3.66462511 5 7 C3.125 6.8125 3.125 6.8125 1 6 C-0.25 3.4375 -0.25 3.4375 -1 1 C-0.67 0.67 -0.34 0.34 0 0 Z " fill="#161716" transform="translate(879,574)"/>
<path d="M0 0 C0.66 0.33 1.32 0.66 2 1 C0.02 5.455 0.02 5.455 -2 10 C-3.09658936 6.71023192 -2.79953138 5.28696233 -2 2 C-1.34 2 -0.68 2 0 2 C0 1.34 0 0.68 0 0 Z " fill="#474847" transform="translate(772,541)"/>
<path d="M0 0 C0.99 0.495 0.99 0.495 2 1 C2.6328125 3.50390625 2.6328125 3.50390625 3.125 6.5625 C3.29257812 7.57441406 3.46015625 8.58632813 3.6328125 9.62890625 C3.75398438 10.41136719 3.87515625 11.19382812 4 12 C3.34 11.67 2.68 11.34 2 11 C2 10.34 2 9.68 2 9 C1.34 9 0.68 9 0 9 C0 6.03 0 3.06 0 0 Z " fill="#40403E" transform="translate(285,535)"/>
<path d="M0 0 C0.33 0 0.66 0 1 0 C1 3.3 1 6.6 1 10 C-0.32 10.33 -1.64 10.66 -3 11 C-2.01 7.37 -1.02 3.74 0 0 Z " fill="#404040" transform="translate(742,527)"/>
<path d="M0 0 C0.99 0.66 1.98 1.32 3 2 C2.67 2.66 2.34 3.32 2 4 C1.34 3.67 0.68 3.34 0 3 C0.33 4.65 0.66 6.3 1 8 C0.01 8.495 0.01 8.495 -1 9 C-2.0326802 6.21176345 -2.04509293 5.1322726 -1.0625 2.25 C-0.711875 1.5075 -0.36125 0.765 0 0 Z " fill="#171716" transform="translate(325,500)"/>
<path d="M0 0 C0.33 0.66 0.66 1.32 1 2 C1.66 2 2.32 2 3 2 C3.33 3.98 3.66 5.96 4 8 C3.01 8 2.02 8 1 8 C0.67 5.36 0.34 2.72 0 0 Z " fill="#131311" transform="translate(274,496)"/>
<path d="M0 0 C1.35015859 4.05047576 0.62084998 6.7920168 0 11 C-0.99 11 -1.98 11 -3 11 C-2.69078116 9.54096742 -2.37751201 8.08279278 -2.0625 6.625 C-1.88847656 5.81289063 -1.71445312 5.00078125 -1.53515625 4.1640625 C-1 2 -1 2 0 0 Z " fill="#040704" transform="translate(412,471)"/>
<path d="M0 0 C0.66 0.33 1.32 0.66 2 1 C1.34 3.64 0.68 6.28 0 9 C-0.66 9 -1.32 9 -2 9 C-2 6.69 -2 4.38 -2 2 C-1.34 2 -0.68 2 0 2 C0 1.34 0 0.68 0 0 Z " fill="#303131" transform="translate(655,475)"/>
<path d="M0 0 C-4.75 4.875 -4.75 4.875 -7 6 C-7.33 5.01 -7.66 4.02 -8 3 C-5.53387212 -0.1151089 -3.89156016 -0.31553191 0 0 Z " fill="#474746" transform="translate(674,451)"/>
<path d="M0 0 C0.33 0.66 0.66 1.32 1 2 C-3.95 3.485 -3.95 3.485 -9 5 C-8.67 4.01 -8.34 3.02 -8 2 C-6.15234375 1.26953125 -6.15234375 1.26953125 -3.9375 0.8125 C-3.20402344 0.65394531 -2.47054688 0.49539063 -1.71484375 0.33203125 C-1.14894531 0.22246094 -0.58304687 0.11289062 0 0 Z " fill="#050404" transform="translate(507,417)"/>
<path d="M0 0 C1.27875 -0.061875 2.5575 -0.12375 3.875 -0.1875 C4.95394531 -0.23970703 4.95394531 -0.23970703 6.0546875 -0.29296875 C6.69664062 -0.19628906 7.33859375 -0.09960938 8 0 C8.66 0.99 9.32 1.98 10 3 C8 4 8 4 6.0546875 3.44140625 C5.33539062 3.15136719 4.61609375 2.86132812 3.875 2.5625 C3.15054688 2.27503906 2.42609375 1.98757813 1.6796875 1.69140625 C0.84824219 1.34916016 0.84824219 1.34916016 0 1 C0 0.67 0 0.34 0 0 Z " fill="#414141" transform="translate(670,582)"/>
<path d="M0 0 C0.99 0.33 1.98 0.66 3 1 C3 4.3 3 7.6 3 11 C0.43383368 7.15075052 0.44902324 4.5650696 0 0 Z " fill="#333434" transform="translate(270,575)"/>
<path d="M0 0 C2.475 0.99 2.475 0.99 5 2 C5 3.65 5 5.3 5 7 C3.68 6.34 2.36 5.68 1 5 C1 4.34 1 3.68 1 3 C0.67 2.01 0.34 1.02 0 0 Z " fill="#171716" transform="translate(659,538)"/>
<path d="M0 0 C0.66 0.33 1.32 0.66 2 1 C2 2.98 2 4.96 2 7 C0.68 7.33 -0.64 7.66 -2 8 C-1.34 5.36 -0.68 2.72 0 0 Z " fill="#2F2F2F" transform="translate(305,488)"/>
<path d="M0 0 C0.33 0.99 0.66 1.98 1 3 C-1.64 2.67 -4.28 2.34 -7 2 C-7 1.34 -7 0.68 -7 0 C-4.3333581 -1.33332095 -2.83319697 -0.67102033 0 0 Z " fill="#121312" transform="translate(194,489)"/>
<path d="M0 0 C0.33 0.66 0.66 1.32 1 2 C1.66 2.33 2.32 2.66 3 3 C2.34 4.65 1.68 6.3 1 8 C0.01 7.67 -0.98 7.34 -2 7 C-1.34 4.69 -0.68 2.38 0 0 Z " fill="#323332" transform="translate(657,466)"/>
<path d="M0 0 C0.66 0 1.32 0 2 0 C1.42655063 2.86724686 1.1385485 3.8614515 -1 6 C-1.99 5.67 -2.98 5.34 -4 5 C-2.71937515 3.2925002 -1.38232443 1.62626404 0 0 Z " fill="#141715" transform="translate(665,455)"/>
<path d="M0 0 C2.875 0.25 2.875 0.25 6 1 C7.375 3.0625 7.375 3.0625 8 5 C2.25 3.125 2.25 3.125 0 2 C0 1.34 0 0.68 0 0 Z " fill="#151516" transform="translate(733,421)"/>
<path d="M0 0 C3.3 0 6.6 0 10 0 C8.515 1.485 8.515 1.485 7 3 C3.65807308 2.75546876 2.39456443 2.39456443 0 0 Z " fill="#060606" transform="translate(710,585)"/>
<path d="M0 0 C0.268125 0.639375 0.53625 1.27875 0.8125 1.9375 C1.88667752 4.33131686 1.88667752 4.33131686 5 5 C4.67 6.32 4.34 7.64 4 9 C1.47740939 7.02579865 1.0070192 6.03254358 0.3125 2.8125 C0.209375 1.884375 0.10625 0.95625 0 0 Z " fill="#070607" transform="translate(139,542)"/>
<path d="M0 0 C0.66 0 1.32 0 2 0 C2.66 2.64 3.32 5.28 4 8 C3.34 8 2.68 8 2 8 C1.67 6.68 1.34 5.36 1 4 C0.34 4 -0.32 4 -1 4 C-0.67 2.68 -0.34 1.36 0 0 Z " fill="#454544" transform="translate(139,538)"/>
<path d="M0 0 C1.37432457 3.81756824 0.67975039 7.07255329 0 11 C-0.66 11 -1.32 11 -2 11 C-1.125 3.375 -1.125 3.375 0 0 Z " fill="#3A3B3A" transform="translate(294,530)"/>
<path d="M0 0 C0.66 0.66 1.32 1.32 2 2 C1.625 4.625 1.625 4.625 1 7 C0.34 7 -0.32 7 -1 7 C-1.33 7.66 -1.66 8.32 -2 9 C-1.34 6.03 -0.68 3.06 0 0 Z " fill="#121414" transform="translate(322,510)"/>
<path d="M0 0 C0.66 0.66 1.32 1.32 2 2 C1.625 4.625 1.625 4.625 1 7 C0.34 7 -0.32 7 -1 7 C-1.33 7.66 -1.66 8.32 -2 9 C-1.34 6.03 -0.68 3.06 0 0 Z " fill="#121211" transform="translate(402,505)"/>
<path d="M0 0 C2 4 2 4 2 8 C0.68 8.33 -0.64 8.66 -2 9 C-1.34 6.03 -0.68 3.06 0 0 Z " fill="#3F4040" transform="translate(377,498)"/>
<path d="M0 0 C1 2 1 2 0.25 5.5625 C-0.1625 6.696875 -0.575 7.83125 -1 9 C-1.99 9.33 -2.98 9.66 -4 10 C-3.52449439 8.51965236 -3.04448784 7.04074979 -2.5625 5.5625 C-2.29566406 4.73878906 -2.02882813 3.91507812 -1.75390625 3.06640625 C-1 1 -1 1 0 0 Z " fill="#373837" transform="translate(880,479)"/>
<path d="M0 0 C0.84062397 3.09773244 1.08935201 5.78332751 1 9 C0.34 9 -0.32 9 -1 9 C-1.33 9.99 -1.66 10.98 -2 12 C-3.40907283 9.18185434 -2.50872691 7.82722796 -1.5625 4.875 C-1.27503906 3.96492188 -0.98757813 3.05484375 -0.69140625 2.1171875 C-0.46324219 1.41851562 -0.23507812 0.71984375 0 0 Z " fill="#3A3B3B" transform="translate(310,470)"/>
<path d="M0 0 C0.33 0.66 0.66 1.32 1 2 C-0.3125 4.625 -0.3125 4.625 -2 7 C-2.66 7 -3.32 7 -4 7 C-3.6875 4.625 -3.6875 4.625 -3 2 C-2.01 1.34 -1.02 0.68 0 0 Z " fill="#151515" transform="translate(638,448)"/>
<path d="M0 0 C2.62187494 1.04874998 3.79371361 1.64931313 5.25 4.125 C5.4975 4.74375 5.745 5.3625 6 6 C3.13275314 5.42655063 2.1385485 5.1385485 0 3 C0 2.01 0 1.02 0 0 Z " fill="#151615" transform="translate(874,449)"/>
<path d="M0 0 C6.52307692 -0.36923077 6.52307692 -0.36923077 8.9375 1.5 C9.288125 1.995 9.63875 2.49 10 3 C9.34 3.66 8.68 4.32 8 5 C5.36 3.68 2.72 2.36 0 1 C0 0.67 0 0.34 0 0 Z " fill="#4F5150" transform="translate(865,446)"/>
<path d="M0 0 C0 0.99 0 1.98 0 3 C-5.75 1.25 -5.75 1.25 -8 -1 C-4.37673261 -2.2077558 -3.35853631 -1.54311128 0 0 Z " fill="#424241" transform="translate(728,447)"/>
<path d="M0 0 C0.66 0.33 1.32 0.66 2 1 C0.02 3.31 -1.96 5.62 -4 8 C-4.33 6.68 -4.66 5.36 -5 4 C-3.35 2.68 -1.7 1.36 0 0 Z " fill="#080807" transform="translate(646,438)"/>
<path d="M0 0 C2.25 0.25 2.25 0.25 4 1 C1.6875 3.0625 1.6875 3.0625 -1 5 C-1.99 4.67 -2.98 4.34 -4 4 C-2.25 1.9375 -2.25 1.9375 0 0 Z " fill="#161716" transform="translate(492,423)"/>
<path d="M0 0 C0.66 0.33 1.32 0.66 2 1 C1.67 3.31 1.34 5.62 1 8 C0.34 7.67 -0.32 7.34 -1 7 C-0.67 4.69 -0.34 2.38 0 0 Z " fill="#141414" transform="translate(315,535)"/>
<path d="M0 0 C0.99 0.33 1.98 0.66 3 1 C1.35 2.65 -0.3 4.3 -2 6 C-2.33 5.34 -2.66 4.68 -3 4 C-2.01 2.68 -1.02 1.36 0 0 Z " fill="#434344" transform="translate(894,509)"/>
<path d="M0 0 C1.9451 2.91765 2.45276317 4.62537285 3 8 C1.68 7.67 0.36 7.34 -1 7 C-0.67 4.69 -0.34 2.38 0 0 Z " fill="#343534" transform="translate(351,500)"/>
<path d="M0 0 C1.32 1.65 2.64 3.3 4 5 C3.34 5.66 2.68 6.32 2 7 C0.4375 5.75 0.4375 5.75 -1 4 C-0.6875 1.8125 -0.6875 1.8125 0 0 Z " fill="#444444" transform="translate(147,473)"/>
<path d="M0 0 C0.66 0.33 1.32 0.66 2 1 C0.35 2.65 -1.3 4.3 -3 6 C-3 5.34 -3 4.68 -3 4 C-3.66 3.67 -4.32 3.34 -5 3 C-2.625 1.4375 -2.625 1.4375 0 0 Z " fill="#4A4A48" transform="translate(453,440)"/>
</svg>
